%FSTAX44Y44*%
%MOMM*%
G71*
G01*
G75*
%ADD10C,0.6000*%
%ADD11C,1.0000*%
%ADD12C,1.5000*%
%ADD13C,2.0000*%
%ADD14O,2.0000X1.6000*%
%ADD15C,3.8100*%
%ADD16C,1.6000*%
%ADD17O,1.6000X2.0000*%
G04:AMPARAMS|DCode=18|XSize=1.6mm|YSize=2mm|CornerRadius=0.4mm|HoleSize=0mm|Usage=FLASHONLY|Rotation=180.000|XOffset=0mm|YOffset=0mm|HoleType=Round|Shape=RoundedRectangle|*
%AMROUNDEDRECTD18*
21,1,1.6000,1.2000,0,0,180.0*
21,1,0.8000,2.0000,0,0,180.0*
1,1,0.8000,-0.4000,0.6000*
1,1,0.8000,0.4000,0.6000*
1,1,0.8000,0.4000,-0.6000*
1,1,0.8000,-0.4000,-0.6000*
%
%ADD18ROUNDEDRECTD18*%
G04:AMPARAMS|DCode=19|XSize=2.54mm|YSize=4.064mm|CornerRadius=0.635mm|HoleSize=0mm|Usage=FLASHONLY|Rotation=180.000|XOffset=0mm|YOffset=0mm|HoleType=Round|Shape=RoundedRectangle|*
%AMROUNDEDRECTD19*
21,1,2.5400,2.7940,0,0,180.0*
21,1,1.2700,4.0640,0,0,180.0*
1,1,1.2700,-0.6350,1.3970*
1,1,1.2700,0.6350,1.3970*
1,1,1.2700,0.6350,-1.3970*
1,1,1.2700,-0.6350,-1.3970*
%
%ADD19ROUNDEDRECTD19*%
G04:AMPARAMS|DCode=20|XSize=4.064mm|YSize=2.54mm|CornerRadius=0.635mm|HoleSize=0mm|Usage=FLASHONLY|Rotation=180.000|XOffset=0mm|YOffset=0mm|HoleType=Round|Shape=RoundedRectangle|*
%AMROUNDEDRECTD20*
21,1,4.0640,1.2700,0,0,180.0*
21,1,2.7940,2.5400,0,0,180.0*
1,1,1.2700,-1.3970,0.6350*
1,1,1.2700,1.3970,0.6350*
1,1,1.2700,1.3970,-0.6350*
1,1,1.2700,-1.3970,-0.6350*
%
%ADD20ROUNDEDRECTD20*%
%ADD21C,2.5400*%
G04:AMPARAMS|DCode=22|XSize=2.032mm|YSize=2.032mm|CornerRadius=0.508mm|HoleSize=0mm|Usage=FLASHONLY|Rotation=90.000|XOffset=0mm|YOffset=0mm|HoleType=Round|Shape=RoundedRectangle|*
%AMROUNDEDRECTD22*
21,1,2.0320,1.0160,0,0,90.0*
21,1,1.0160,2.0320,0,0,90.0*
1,1,1.0160,0.5080,0.5080*
1,1,1.0160,0.5080,-0.5080*
1,1,1.0160,-0.5080,-0.5080*
1,1,1.0160,-0.5080,0.5080*
%
%ADD22ROUNDEDRECTD22*%
%ADD23C,2.0320*%
%ADD24O,2.5000X1.9000*%
%ADD25C,2.5000*%
%ADD26O,1.6000X1.4000*%
%ADD27O,1.6000X1.3000*%
%ADD28C,1.8000*%
%ADD29O,2.5000X1.6000*%
%ADD30O,2.0000X3.0000*%
%ADD31C,1.4000*%
%ADD32C,1.2000*%
%ADD33C,2.5000*%
%ADD34C,0.5000*%
%ADD35C,0.3000*%
%ADD36C,0.2540*%
%ADD37C,0.3048*%
%ADD38C,0.1780*%
%ADD39C,0.1778*%
%ADD40C,0.2000*%
%ADD41C,0.2500*%
%ADD42R,1.2000X10.2200*%
G36*
X01993Y005547D02*
Y005544D01*
X019691D01*
X019812Y005665D01*
X01993Y005547D01*
D02*
G37*
G36*
X0233807Y00519007D02*
X0234442D01*
Y00513927D01*
X0233807D01*
Y00510117D01*
X0233172Y00516467D01*
X0233807Y00522817D01*
Y00519007D01*
D02*
G37*
G36*
Y00722207D02*
X0234442D01*
Y00717127D01*
X0233807D01*
Y00713317D01*
X0233172Y00719667D01*
X0233807Y00726017D01*
Y00722207D01*
D02*
G37*
G36*
Y00604097D02*
X0234442D01*
Y00599017D01*
X0233807D01*
Y00595207D01*
X0233172Y00601557D01*
X0233807Y00607907D01*
Y00604097D01*
D02*
G37*
G36*
X0138049Y00476D02*
X0136271D01*
X013716Y0048489D01*
X0138049Y00476D01*
D02*
G37*
G36*
X01817243Y00333629D02*
Y00333883D01*
X01808353Y00342773D01*
X01826387D01*
X01817243Y00333629D01*
D02*
G37*
G36*
X0233807Y00315807D02*
X0234442D01*
Y00310727D01*
X0233807D01*
Y00306917D01*
X0233172Y00313267D01*
X0233807Y00319617D01*
Y00315807D01*
D02*
G37*
G36*
Y00400897D02*
X0234442D01*
Y00395817D01*
X0233807D01*
Y00392007D01*
X0233172Y00398357D01*
X0233807Y00404707D01*
Y00400897D01*
D02*
G37*
G36*
X01993Y003515D02*
Y003512D01*
X019691D01*
X019812Y003633D01*
X01993Y003515D01*
D02*
G37*
G36*
X018177Y010797D02*
Y010794D01*
X017916Y010533D01*
Y011058D01*
X018177Y010797D01*
D02*
G37*
G36*
X0233807Y01010497D02*
X0234442D01*
Y01005417D01*
X0233807D01*
Y01001607D01*
X0233172Y01007957D01*
X0233807Y01014307D01*
Y01010497D01*
D02*
G37*
G36*
Y01213697D02*
X0234442D01*
Y01208617D01*
X0233807D01*
Y01204807D01*
X0233172Y01211157D01*
X0233807Y01217507D01*
Y01213697D01*
D02*
G37*
G36*
Y01128607D02*
X0234442D01*
Y01123527D01*
X0233807D01*
Y01119717D01*
X0233172Y01126067D01*
X0233807Y01132417D01*
Y01128607D01*
D02*
G37*
G36*
X01993Y009611D02*
Y009608D01*
X019691D01*
X019812Y009729D01*
X01993Y009611D01*
D02*
G37*
G36*
X01470406Y00797179D02*
X0145034D01*
Y00803021D01*
X01470406D01*
Y00797179D01*
D02*
G37*
G36*
X01993Y007579D02*
Y007576D01*
X019691D01*
X019812Y007697D01*
X01993Y007579D01*
D02*
G37*
G36*
X0233807Y00925407D02*
X0234442D01*
Y00920327D01*
X0233807D01*
Y00916517D01*
X0233172Y00922867D01*
X0233807Y00929217D01*
Y00925407D01*
D02*
G37*
G36*
Y00807297D02*
X0234442D01*
Y00802217D01*
X0233807D01*
Y00798407D01*
X0233172Y00804757D01*
X0233807Y00811107D01*
Y00807297D01*
D02*
G37*
D35*
X018035Y009501D02*
G03*
X018007Y009525I-000026J-000002D01*
G01*
X017553Y009525D02*
G03*
X017525Y009501I-000002J-000026D01*
G01*
Y007009D02*
G03*
X017553Y006985I000026J000002D01*
G01*
X018007Y006985D02*
G03*
X018035Y007009I000002J000026D01*
G01*
X01800187Y0042366D02*
G03*
X01799734Y00480728I-00009487J00028461D01*
G01*
X0178208Y00480855D02*
G03*
X01781604Y00423532I0000862J-00028735D01*
G01*
X018057Y0045212D02*
G03*
X018057Y0045212I-00015J0D01*
G01*
X01932312Y00352406D02*
G03*
X01932357Y00308084I00012637J-00022148D01*
G01*
X01928727Y00409689D02*
G03*
X01957473Y00409689I00014373J-00015989D01*
G01*
X01932312Y00555606D02*
G03*
X01932357Y00511284I00012637J-00022148D01*
G01*
X01928727Y00612889D02*
G03*
X01957473Y00612889I00014373J-00015989D01*
G01*
X01932312Y00758806D02*
G03*
X01932357Y00714484I00012637J-00022148D01*
G01*
X01928727Y00816089D02*
G03*
X01957473Y00816089I00014373J-00015989D01*
G01*
X01932312Y00962006D02*
G03*
X01932357Y00917684I00012637J-00022148D01*
G01*
X01928727Y01019289D02*
G03*
X01957473Y01019289I00014373J-00015989D01*
G01*
X021761Y01351D02*
G03*
X021761Y01351I-000425J0D01*
G01*
X0205247Y01338914D02*
G03*
X02052489Y01353428I-0002284J00007286D01*
G01*
X02036941Y01353519D02*
G03*
X02037029Y0133861I00022829J-00007319D01*
G01*
X017284Y012084D02*
G03*
X017234Y012034I0J-00005D01*
G01*
Y011334D02*
G03*
X017284Y011284I00005J0D01*
G01*
X018784D02*
G03*
X018834Y011334I0J00005D01*
G01*
Y012034D02*
G03*
X018784Y012084I-00005J0D01*
G01*
X01742Y012673D02*
G03*
X01742Y012673I-000275J0D01*
G01*
X01665373Y01190511D02*
G03*
X01636627Y01190511I-00014373J00015989D01*
G01*
X0165877Y01262714D02*
G03*
X01658788Y01277228I-0002284J00007286D01*
G01*
X01643241Y01277319D02*
G03*
X01643329Y0126241I00022829J-00007319D01*
G01*
X018309Y013743D02*
G03*
X018309Y013743I-000275J0D01*
G01*
X0171943Y01378886D02*
G03*
X01719411Y01364372I0002284J-00007286D01*
G01*
X01734959Y01364281D02*
G03*
X01734871Y0137919I-00022829J00007319D01*
G01*
X01665373Y01355611D02*
G03*
X01636627Y01355611I-00014373J00015989D01*
G01*
X01516714Y0076693D02*
G03*
X01531228Y00766911I00007286J0002284D01*
G01*
X01531319Y00782459D02*
G03*
X0151641Y00782371I-00007319J-00022829D01*
G01*
X01516714Y0081773D02*
G03*
X01531228Y00817711I00007286J0002284D01*
G01*
X01531319Y00833259D02*
G03*
X0151641Y00833171I-00007319J-00022829D01*
G01*
X01483975Y00837432D02*
G03*
X01437025Y00837432I-00023475J-00005582D01*
G01*
Y00762768D02*
G03*
X01483975Y00762768I00023475J00005582D01*
G01*
X0141747Y00742014D02*
G03*
X01417489Y00756528I-0002284J00007286D01*
G01*
X01401941Y00756619D02*
G03*
X01402029Y0074171I00022829J-00007319D01*
G01*
X01437Y013208D02*
G03*
X014586Y013208I000108J0D01*
G01*
X0150353Y01302686D02*
G03*
X01503512Y01288172I0002284J-00007286D01*
G01*
X01519059Y01288081D02*
G03*
X01518971Y0130299I-00022829J00007319D01*
G01*
X013911Y012954D02*
G03*
X013911Y012954I-000195J0D01*
G01*
X01280898Y01276542D02*
G03*
X0128116Y01213583I-00111068J-00031942D01*
G01*
X0116063Y00775636D02*
G03*
X01160611Y00761122I0002284J-00007286D01*
G01*
X01176159Y00761031D02*
G03*
X01176071Y0077594I-00022829J00007319D01*
G01*
X0117617Y00697564D02*
G03*
X01176189Y00712078I-0002284J00007286D01*
G01*
X01160641Y00712169D02*
G03*
X01160729Y0069726I00022829J-00007319D01*
G01*
X011304Y006961D02*
G03*
X011276Y006985I-000026J-000002D01*
G01*
X011076Y006985D02*
G03*
X011048Y006961I-000002J-000026D01*
G01*
Y005231D02*
G03*
X011076Y005207I000026J000002D01*
G01*
X011276Y005207D02*
G03*
X011304Y005231I000002J000026D01*
G01*
X010181Y0039386D02*
G03*
X010181Y0039386I-000275J0D01*
G01*
X00937888Y00371494D02*
G03*
X00937843Y00415816I-00012637J00022148D01*
G01*
X00887088Y00307994D02*
G03*
X00887043Y00352316I-00012637J00022148D01*
G01*
X008247Y003766D02*
G03*
X008247Y003766I-0001J0D01*
G01*
X008357Y003556D02*
G03*
X008357Y003556I-00061J0D01*
G01*
X007847D02*
G03*
X007847Y003556I-0001J0D01*
G01*
X005842Y005715D02*
G03*
X005969Y005588I000127J0D01*
G01*
X008255D02*
G03*
X008382Y005715I0J000127D01*
G01*
Y013081D02*
G03*
X008255Y013208I-000127J0D01*
G01*
X005969Y013208D02*
G03*
X005842Y013081I0J-000127D01*
G01*
X005127Y005127D02*
G03*
X005334Y00493805I00019798J00000903D01*
G01*
X00889Y00493805D02*
G03*
X009097Y005127I00000903J00019798D01*
G01*
Y013669D02*
G03*
X00889Y01388805I-00021302J00000602D01*
G01*
X005334D02*
G03*
X005127Y013669I00000602J-00021302D01*
G01*
X00449Y009211D02*
G03*
X004462Y009235I-000026J-000002D01*
G01*
X004262Y009235D02*
G03*
X004234Y009211I-000002J-000026D01*
G01*
Y005195D02*
G03*
X004262Y005171I000026J000002D01*
G01*
X004462Y005171D02*
G03*
X00449Y005195I000002J000026D01*
G01*
X004487Y004748D02*
G03*
X004487Y004748I-000125J0D01*
G01*
X009987D02*
G03*
X009987Y004748I-000125J0D01*
G01*
Y014048D02*
G03*
X009987Y014048I-000125J0D01*
G01*
X004487D02*
G03*
X004487Y014048I-000125J0D01*
G01*
X0047563Y00394462D02*
G03*
X0047563Y00394462I-00007J0D01*
G01*
X012089Y003176D02*
G03*
X012065Y003148I000002J-000026D01*
G01*
X012065Y002948D02*
G03*
X012089Y00292I000026J-000002D01*
G01*
X013819D02*
G03*
X013843Y002948I-000002J000026D01*
G01*
X013843Y003148D02*
G03*
X013819Y003176I-000026J000002D01*
G01*
X02044266Y00544068D02*
G03*
X0204452Y00573532I-00014605J00014859D01*
G01*
X02111368Y00559054D02*
G03*
X02111368Y00559054I-00004522J0D01*
G01*
X02164962Y00575818D02*
G03*
X02164962Y00575818I-00004522J0D01*
G01*
X02164708Y00537464D02*
G03*
X02164708Y00537464I-00004522J0D01*
G01*
X02044266Y00340868D02*
G03*
X0204452Y00370332I-00014605J00014859D01*
G01*
X02111368Y00355854D02*
G03*
X02111368Y00355854I-00004522J0D01*
G01*
X02164962Y00372618D02*
G03*
X02164962Y00372618I-00004522J0D01*
G01*
X02164708Y00334264D02*
G03*
X02164708Y00334264I-00004522J0D01*
G01*
X021611Y011657D02*
G03*
X021611Y011657I-000275J0D01*
G01*
X0209057Y01161114D02*
G03*
X02090589Y01175628I-0002284J00007286D01*
G01*
X02075041Y01175719D02*
G03*
X02075129Y0116081I00022829J-00007319D01*
G01*
X02044266Y00747268D02*
G03*
X0204452Y00776732I-00014605J00014859D01*
G01*
X02111368Y00762254D02*
G03*
X02111368Y00762254I-00004522J0D01*
G01*
X02164962Y00779018D02*
G03*
X02164962Y00779018I-00004522J0D01*
G01*
X02164708Y00740664D02*
G03*
X02164708Y00740664I-00004522J0D01*
G01*
X02044266Y00950468D02*
G03*
X0204452Y00979932I-00014605J00014859D01*
G01*
X02111368Y00965454D02*
G03*
X02111368Y00965454I-00004522J0D01*
G01*
X02164962Y00982218D02*
G03*
X02164962Y00982218I-00004522J0D01*
G01*
X02164708Y00943864D02*
G03*
X02164708Y00943864I-00004522J0D01*
G01*
X01310133Y00495469D02*
G03*
X01280147Y00495583I-00014991J00000508D01*
G01*
X017525Y0072644D02*
X017526D01*
X0175514Y007239D01*
X0175504D02*
X0175514D01*
X017525Y0072136D02*
X0175504Y007239D01*
X017525Y0072654D02*
Y007469D01*
Y0072654D02*
X017526Y0072644D01*
X017525Y0070104D02*
Y0072136D01*
Y0077724D02*
X017526D01*
X0175514Y007747D01*
X0175504D02*
X0175514D01*
X017525Y0077216D02*
X0175504Y007747D01*
X017525Y0077734D02*
Y007977D01*
Y0077734D02*
X017526Y0077724D01*
X017525Y0075184D02*
Y0077216D01*
Y0075184D02*
X017526D01*
X0175514Y007493D01*
X017526Y0074676D02*
X0175514Y007493D01*
X017525Y0082804D02*
X017526D01*
X0175514Y008255D01*
X0175504D02*
X0175514D01*
X017525Y0082296D02*
X0175504Y008255D01*
X017525Y0082814D02*
Y008485D01*
Y0082814D02*
X017526Y0082804D01*
X017525Y0080264D02*
Y0082296D01*
Y0080264D02*
X017526D01*
X0175514Y008001D01*
X017526Y0079756D02*
X0175514Y008001D01*
X017525Y0087884D02*
X017526D01*
X0175514Y008763D01*
X0175504D02*
X0175514D01*
X017525Y0087376D02*
X0175504Y008763D01*
X017525Y0087894D02*
Y008993D01*
Y0087894D02*
X017526Y0087884D01*
X017525Y0085344D02*
Y0087376D01*
Y0085344D02*
X017526D01*
X0175514Y008509D01*
X017526Y0084836D02*
X0175514Y008509D01*
X0180086Y007239D02*
X018034Y0072644D01*
X0180086Y007239D02*
X018034Y0072136D01*
X018035Y0072644D02*
Y007469D01*
Y0070104D02*
Y0072136D01*
X0180086Y007747D02*
X018034Y0077724D01*
X0180086Y007747D02*
X018034Y0077216D01*
X018035Y0077724D02*
Y007977D01*
X0180086Y007493D02*
X018034Y0075184D01*
X0180086Y007493D02*
X018034Y0074676D01*
X018035Y0075184D02*
Y0077216D01*
X018034Y0075184D02*
X018035D01*
X0180086Y008255D02*
X018034Y0082804D01*
X0180086Y008255D02*
X018034Y0082296D01*
X018035Y0082804D02*
Y008485D01*
X0180086Y008001D02*
X018034Y0080264D01*
X0180086Y008001D02*
X018034Y0079756D01*
X018035Y0080264D02*
Y0082296D01*
X018034Y0080264D02*
X018035D01*
X0180086Y008763D02*
X018034Y0087884D01*
X0180086Y008763D02*
X018034Y0087376D01*
X018035Y0087884D02*
Y008993D01*
X0180086Y008509D02*
X018034Y0085344D01*
X0180086Y008509D02*
X018034Y0084836D01*
X018035Y0085344D02*
Y0087376D01*
X018034Y0085344D02*
X018035D01*
X017526Y0089916D02*
X0175514Y009017D01*
X017526Y0090424D02*
X0175514Y009017D01*
X017525Y0090424D02*
X017526D01*
X017525D02*
Y0092456D01*
Y0092974D02*
X017526Y0092964D01*
X017525Y0092974D02*
Y009501D01*
X018034Y0090424D02*
X018035D01*
Y0092456D01*
X0180086Y009017D02*
X018034Y0089916D01*
X0180086Y009017D02*
X018034Y0090424D01*
X018035Y0092964D02*
Y009501D01*
X017525Y0092456D02*
X0175504Y009271D01*
X0175514D01*
X017526Y0092964D02*
X0175514Y009271D01*
X017525Y0092964D02*
X017526D01*
X01781Y006985D02*
X018007D01*
X01775D02*
X01778Y007015D01*
X01756Y006985D02*
X01775D01*
X0180086Y009271D02*
X018034Y0092456D01*
X0180086Y009271D02*
X018034Y0092964D01*
X017553Y009525D02*
X01776D01*
X0178D02*
X018007D01*
X01778Y009505D02*
X0178Y009525D01*
X01776D02*
X01778Y009505D01*
Y007015D02*
X01781Y006985D01*
X0175504Y009271D02*
X017756D01*
X01778Y009295D01*
Y009505D01*
X022098Y0032258D02*
X0221996Y0031242D01*
X022098Y0030226D02*
Y0032258D01*
Y0030226D02*
X0221996Y0031242D01*
X0221234Y003048D02*
Y0032004D01*
X0221488Y0030734D02*
Y003175D01*
X0221742Y0030988D02*
Y0031496D01*
X022098Y0052578D02*
X0221996Y0051562D01*
X022098Y0050546D02*
Y0052578D01*
Y0050546D02*
X0221996Y0051562D01*
X0221234Y00508D02*
Y0052324D01*
X0221488Y0051054D02*
Y005207D01*
X0221742Y0051308D02*
Y0051816D01*
X022098Y0072898D02*
X0221996Y0071882D01*
X022098Y0070866D02*
Y0072898D01*
Y0070866D02*
X0221996Y0071882D01*
X0221234Y007112D02*
Y0072644D01*
X0221488Y0071374D02*
Y007239D01*
X0221742Y0071628D02*
Y0072136D01*
Y0091948D02*
Y0092456D01*
X0221488Y0091694D02*
Y009271D01*
X0221234Y009144D02*
Y0092964D01*
X022098Y0091186D02*
X0221996Y0092202D01*
X022098Y0091186D02*
Y0093218D01*
X0221996Y0092202D01*
X017739Y003553D02*
Y003813D01*
X017059Y003553D02*
X017739D01*
X017059D02*
Y003813D01*
X017739D01*
Y003683D02*
X017809D01*
X016989D02*
X017059D01*
X0195961Y0031115D02*
Y0034925D01*
X0195453Y0030607D02*
X0195961Y0031115D01*
X0195453Y0035433D02*
X0195961Y0034925D01*
X019812Y003156D02*
Y003956D01*
X019691Y003641D02*
X019932D01*
X019812Y003633D02*
Y00364D01*
X019691Y003512D02*
X019812Y003633D01*
X019691Y003512D02*
X01993D01*
X019812Y00363D02*
X01993Y003512D01*
X0193194Y00381D02*
X01933702D01*
X0192686Y0039116D02*
X0193702D01*
X0192686D02*
X0193194Y0039624D01*
X0193702Y0039116D01*
X0192686Y0039624D02*
X0193702D01*
X0193194D02*
Y0040386D01*
Y004064D01*
X01933702D01*
X0193194Y00381D02*
Y0039116D01*
X01927622Y00391922D02*
X01936258D01*
X01928384Y00392684D02*
X01935496D01*
X01929146Y00393446D02*
X01934734D01*
X01929908Y00394208D02*
X01933972D01*
X0193067Y0039497D02*
X0193321D01*
X01936258Y00391922D02*
X0193702Y0039116D01*
X01935496Y00392684D02*
X01936258Y00391922D01*
X01933972Y00394208D02*
X01934734Y00393446D01*
X0193321Y0039497D02*
X01933972Y00394208D01*
X01951736Y004097D02*
X01957483D01*
X01928717D02*
X01934464D01*
X018793Y003896D02*
X019053D01*
Y003216D02*
Y003896D01*
X018793Y003216D02*
X019053D01*
X018793D02*
Y003896D01*
X018923D02*
Y003966D01*
Y003146D02*
Y003216D01*
X0195961Y0051435D02*
Y0055245D01*
X0195453Y0050927D02*
X0195961Y0051435D01*
X0195453Y0055753D02*
X0195961Y0055245D01*
X019812Y005188D02*
Y005988D01*
X019691Y005673D02*
X019932D01*
X019812Y005665D02*
Y005672D01*
X019691Y005544D02*
X019812Y005665D01*
X019691Y005544D02*
X01993D01*
X019812Y005662D02*
X01993Y005544D01*
X0193194Y005842D02*
X01933702D01*
X0192686Y0059436D02*
X0193702D01*
X0192686D02*
X0193194Y0059944D01*
X0193702Y0059436D01*
X0192686Y0059944D02*
X0193702D01*
X0193194D02*
Y0060706D01*
Y006096D01*
X01933702D01*
X0193194Y005842D02*
Y0059436D01*
X01927622Y00595122D02*
X01936258D01*
X01928384Y00595884D02*
X01935496D01*
X01929146Y00596646D02*
X01934734D01*
X01929908Y00597408D02*
X01933972D01*
X0193067Y0059817D02*
X0193321D01*
X01936258Y00595122D02*
X0193702Y0059436D01*
X01935496Y00595884D02*
X01936258Y00595122D01*
X01933972Y00597408D02*
X01934734Y00596646D01*
X0193321Y0059817D02*
X01933972Y00597408D01*
X01951736Y006129D02*
X01957483D01*
X01928717D02*
X01934464D01*
X018793Y005928D02*
X019053D01*
Y005248D02*
Y005928D01*
X018793Y005248D02*
X019053D01*
X018793D02*
Y005928D01*
X018923D02*
Y005998D01*
Y005178D02*
Y005248D01*
X0195961Y0071755D02*
Y0075565D01*
X0195453Y0071247D02*
X0195961Y0071755D01*
X0195453Y0076073D02*
X0195961Y0075565D01*
X019812Y00722D02*
Y00802D01*
X019691Y007705D02*
X019932D01*
X019812Y007697D02*
Y007704D01*
X019691Y007576D02*
X019812Y007697D01*
X019691Y007576D02*
X01993D01*
X019812Y007694D02*
X01993Y007576D01*
X0193194Y007874D02*
X01933702D01*
X0192686Y0079756D02*
X0193702D01*
X0192686D02*
X0193194Y0080264D01*
X0193702Y0079756D01*
X0192686Y0080264D02*
X0193702D01*
X0193194D02*
Y0081026D01*
Y008128D01*
X01933702D01*
X0193194Y007874D02*
Y0079756D01*
X01927622Y00798322D02*
X01936258D01*
X01928384Y00799084D02*
X01935496D01*
X01929146Y00799846D02*
X01934734D01*
X01929908Y00800608D02*
X01933972D01*
X0193067Y0080137D02*
X0193321D01*
X01936258Y00798322D02*
X0193702Y0079756D01*
X01935496Y00799084D02*
X01936258Y00798322D01*
X01933972Y00800608D02*
X01934734Y00799846D01*
X0193321Y0080137D02*
X01933972Y00800608D01*
X01951736Y008161D02*
X01957483D01*
X01928717D02*
X01934464D01*
X018793Y00796D02*
X019053D01*
Y00728D02*
Y00796D01*
X018793Y00728D02*
X019053D01*
X018793D02*
Y00796D01*
X018923D02*
Y00803D01*
Y00721D02*
Y00728D01*
X0195961Y0092075D02*
Y0095885D01*
X0195453Y0091567D02*
X0195961Y0092075D01*
X0195453Y0096393D02*
X0195961Y0095885D01*
X019812Y009252D02*
Y010052D01*
X019691Y009737D02*
X019932D01*
X019812Y009729D02*
Y009736D01*
X019691Y009608D02*
X019812Y009729D01*
X019691Y009608D02*
X01993D01*
X019812Y009726D02*
X01993Y009608D01*
X0193194Y009906D02*
X01933702D01*
X0192686Y0100076D02*
X0193702D01*
X0192686D02*
X0193194Y0100584D01*
X0193702Y0100076D01*
X0192686Y0100584D02*
X0193702D01*
X0193194D02*
Y0101346D01*
Y01016D01*
X01933702D01*
X0193194Y009906D02*
Y0100076D01*
X01927622Y01001522D02*
X01936258D01*
X01928384Y01002284D02*
X01935496D01*
X01929146Y01003046D02*
X01934734D01*
X01929908Y01003808D02*
X01933972D01*
X0193067Y0100457D02*
X0193321D01*
X01936258Y01001522D02*
X0193702Y0100076D01*
X01935496Y01002284D02*
X01936258Y01001522D01*
X01933972Y01003808D02*
X01934734Y01003046D01*
X0193321Y0100457D02*
X01933972Y01003808D01*
X01951736Y010193D02*
X01957483D01*
X01928717D02*
X01934464D01*
X018793Y009992D02*
X019053D01*
Y009312D02*
Y009992D01*
X018793Y009312D02*
X019053D01*
X018793D02*
Y009992D01*
X018923D02*
Y010062D01*
Y009242D02*
Y009312D01*
X019667Y013079D02*
Y014099D01*
X01966685D02*
X019997Y014074D01*
Y013104D02*
Y014074D01*
X019527Y013079D02*
Y014099D01*
X01966685Y013079D02*
X019997Y013104D01*
X019527Y013079D02*
X019667D01*
X019527Y014099D02*
X019667D01*
X018501Y012824D02*
Y013084D01*
X017821Y012824D02*
X018501D01*
X017821D02*
Y013084D01*
X018501D01*
Y012954D02*
X018571D01*
X017751D02*
X017821D01*
Y012316D02*
Y012576D01*
X018501D01*
Y012316D02*
Y012576D01*
X017821Y012316D02*
X018501D01*
X017751Y012446D02*
X017821D01*
X018501D02*
X018571D01*
X017924Y010545D02*
X018174Y010795D01*
X017924Y010545D02*
Y011045D01*
X018174Y010795D01*
X0181815Y010545D02*
Y011045D01*
X0180721Y010795D02*
X018643D01*
X017425D02*
X0180721D01*
X018834Y011334D02*
Y012034D01*
X017284Y012084D02*
X018784D01*
X017284Y011284D02*
X018784D01*
X017234Y011334D02*
Y012034D01*
X016761Y011217D02*
X017021D01*
X016761D02*
Y011897D01*
X017021D01*
Y011217D02*
Y011897D01*
X016891Y011147D02*
Y011217D01*
Y011897D02*
Y011967D01*
X01660398Y012192D02*
X0166216D01*
X0165708Y0120904D02*
X0166724D01*
X0166216Y0120396D02*
X0166724Y0120904D01*
X0165708D02*
X0166216Y0120396D01*
X0165708D02*
X0166724D01*
X0166216Y0119634D02*
Y0120396D01*
Y011938D02*
Y0119634D01*
X01660398Y011938D02*
X0166216D01*
Y0120904D02*
Y012192D01*
X01657842Y01208278D02*
X01666478D01*
X01658604Y01207516D02*
X01665716D01*
X01659366Y01206754D02*
X01664954D01*
X01660128Y01205992D02*
X01664192D01*
X0166089Y0120523D02*
X0166343D01*
X0165708Y0120904D02*
X01657842Y01208278D01*
X01658604Y01207516D01*
X01659366Y01206754D02*
X01660128Y01205992D01*
X0166089Y0120523D01*
X01636617Y011905D02*
X01642364D01*
X01659636D02*
X01665383D01*
X017358Y013078D02*
Y013338D01*
X016678Y013078D02*
X017358D01*
X016678D02*
Y013338D01*
X017358D01*
Y013208D02*
X017428D01*
X016608D02*
X016678D01*
X01660398Y013843D02*
X0166216D01*
X0165708Y0137414D02*
X0166724D01*
X0166216Y0136906D02*
X0166724Y0137414D01*
X0165708D02*
X0166216Y0136906D01*
X0165708D02*
X0166724D01*
X0166216Y0136144D02*
Y0136906D01*
Y013589D02*
Y0136144D01*
X01660398Y013589D02*
X0166216D01*
Y0137414D02*
Y013843D01*
X01657842Y01373378D02*
X01666478D01*
X01658604Y01372616D02*
X01665716D01*
X01659366Y01371854D02*
X01664954D01*
X01660128Y01371092D02*
X01664192D01*
X0166089Y0137033D02*
X0166343D01*
X0165708Y0137414D02*
X01657842Y01373378D01*
X01658604Y01372616D01*
X01659366Y01371854D02*
X01660128Y01371092D01*
X0166089Y0137033D01*
X01636617Y013556D02*
X01642364D01*
X01659636D02*
X01665383D01*
X014773Y009014D02*
Y009274D01*
X015453D01*
Y009014D02*
Y009274D01*
X014773Y009014D02*
X015453D01*
X014703Y009144D02*
X014773D01*
X015453D02*
X015523D01*
X014773Y008633D02*
Y008893D01*
X015453D01*
Y008633D02*
Y008893D01*
X014773Y008633D02*
X015453D01*
X014703Y008763D02*
X014773D01*
X015453D02*
X015523D01*
X014773Y009395D02*
Y009655D01*
X015453D01*
Y009395D02*
Y009655D01*
X014773Y009395D02*
X015453D01*
X014703Y009525D02*
X014773D01*
X015453D02*
X015523D01*
X01484Y00762768D02*
Y00837432D01*
X01437Y00762768D02*
Y00837432D01*
X014138Y011427D02*
Y011687D01*
X014818D01*
Y011427D02*
Y011687D01*
X014138Y011427D02*
X014818D01*
Y011557D02*
X014888D01*
X014138Y011808D02*
Y012068D01*
X014818D01*
Y011808D02*
Y012068D01*
X014138Y011808D02*
X014818D01*
Y011938D02*
X014888D01*
X014198Y012192D02*
X014758D01*
Y013208D01*
X014198Y012192D02*
Y013208D01*
X01437D01*
X014586D02*
X014758D01*
X013998D02*
X014198D01*
X013998Y01297D02*
Y013208D01*
Y01297D02*
X014198D01*
X014138Y013332D02*
Y013592D01*
X014818D01*
Y013332D02*
Y013592D01*
X014138Y013332D02*
X014818D01*
Y013462D02*
X014888D01*
X01311402Y012576D02*
Y012666D01*
X01324864D01*
Y012226D02*
Y012666D01*
X01311656Y012226D02*
X01324864D01*
X01311656D02*
Y012316D01*
X0128116Y012136D02*
X013335D01*
Y012766D01*
X012811D02*
X013335D01*
X011048Y0052334D02*
Y005437D01*
Y0057404D02*
X011049D01*
X0110744Y005715D01*
X0110734D02*
X0110744D01*
X011048Y0056896D02*
X0110734Y005715D01*
X011048Y0057414D02*
Y005945D01*
Y0057414D02*
X011049Y0057404D01*
X011048Y0054864D02*
Y0056896D01*
Y0054864D02*
X011049D01*
X0110744Y005461D01*
X011049Y0054356D02*
X0110744Y005461D01*
X011048Y0062484D02*
X011049D01*
X0110744Y006223D01*
X0110734D02*
X0110744D01*
X011048Y0061976D02*
X0110734Y006223D01*
X011048Y0062494D02*
Y006453D01*
Y0062494D02*
X011049Y0062484D01*
X011048Y0059944D02*
Y0061976D01*
Y0059944D02*
X011049D01*
X0110744Y005969D01*
X011049Y0059436D02*
X0110744Y005969D01*
X011304Y0052324D02*
Y005437D01*
X0112776Y005715D02*
X011303Y0057404D01*
X0112776Y005715D02*
X011303Y0056896D01*
X011304Y0057404D02*
Y005945D01*
X0112776Y005461D02*
X011303Y0054864D01*
X0112776Y005461D02*
X011303Y0054356D01*
X011304Y0054864D02*
Y0056896D01*
X011303Y0054864D02*
X011304D01*
X0112776Y006223D02*
X011303Y0062484D01*
X0112776Y006223D02*
X011303Y0061976D01*
X011304Y0062484D02*
Y006453D01*
X0112776Y005969D02*
X011303Y0059944D01*
X0112776Y005969D02*
X011303Y0059436D01*
X011304Y0059944D02*
Y0061976D01*
X011303Y0059944D02*
X011304D01*
X011049Y0064516D02*
X0110744Y006477D01*
X011049Y0065024D02*
X0110744Y006477D01*
X011048Y0065024D02*
X011049D01*
X011048D02*
Y0067056D01*
Y0067574D02*
X011049Y0067564D01*
X011048Y0067574D02*
Y006961D01*
X011303Y0065024D02*
X011304D01*
Y0067056D01*
X0112776Y006477D02*
X011303Y0064516D01*
X0112776Y006477D02*
X011303Y0065024D01*
X011304Y0067564D02*
Y006961D01*
X011048Y0067056D02*
X0110734Y006731D01*
X0110744D01*
X011049Y0067564D02*
X0110744Y006731D01*
X011048Y0067564D02*
X011049D01*
X0112776Y006731D02*
X011303Y0067056D01*
X0112776Y006731D02*
X011303Y0067564D01*
X011076Y006985D02*
X011276D01*
X011076Y005207D02*
X011276D01*
X0110734Y006731D02*
X0112776D01*
X009312Y003559D02*
X009992D01*
X009242Y003429D02*
X009312D01*
X009992D02*
X010062D01*
X009992Y002918D02*
Y003178D01*
X009312Y002918D02*
X009992D01*
X009312D02*
Y003178D01*
X009992D01*
Y003048D02*
X010062D01*
X009242D02*
X009312D01*
X0091059Y0037465D02*
X0091567Y0036957D01*
X0091059Y0041275D02*
X0091567Y0041783D01*
X0091059Y0037465D02*
Y0041275D01*
X0085979Y0031115D02*
Y0034925D01*
X0086487Y0035433D01*
X0085979Y0031115D02*
X0086487Y0030607D01*
X008147Y003666D02*
Y003866D01*
X008047Y003766D02*
X008247D01*
X005127Y005127D02*
X005127Y013669D01*
X009097Y005127D02*
X009097Y013669D01*
X006072Y005818D02*
X006072Y012978D01*
X008152Y005818D02*
X008152Y012978D01*
X006072Y005818D02*
X008152D01*
X006072Y012978D02*
X008152D01*
X005969Y013208D02*
X008255D01*
X008382Y005715D02*
Y013081D01*
X005842Y005715D02*
Y013081D01*
X005969Y005588D02*
X008255D01*
X006731Y00508D02*
X007493D01*
X006731Y00493805D02*
Y00508D01*
X007493Y00493805D02*
Y00508D01*
X006731Y013716D02*
Y01388805D01*
Y013716D02*
X007493D01*
Y01388805D01*
X005334Y005334D02*
Y013462D01*
X005461D01*
Y005334D02*
Y013462D01*
X005334Y005334D02*
X005461D01*
X008763D02*
X00889D01*
X008763D02*
Y013462D01*
X00889D01*
Y005334D02*
Y013462D01*
X004562Y01388805D02*
X009662D01*
Y00493805D02*
Y01388805D01*
X004097Y00449805D02*
Y01432805D01*
X010127D01*
Y00449805D02*
Y01432805D01*
X004097Y00449805D02*
X010127D01*
X004562Y00493805D02*
Y01388805D01*
Y00493805D02*
X009662D01*
X004262Y009235D02*
X004462D01*
X00449Y009005D02*
Y0092086D01*
X0044636Y008981D02*
X004489Y0090064D01*
X004234Y009005D02*
Y0092096D01*
X004235Y0090064D02*
X0042604Y008981D01*
X004235Y0087524D02*
X0042604Y008727D01*
X004234Y008751D02*
Y0089556D01*
X004235D02*
X0042604Y008981D01*
X0044636Y008727D02*
X004489Y0087524D01*
Y0089556D02*
X00449Y0089546D01*
Y008751D02*
Y0089546D01*
X0044636Y008981D02*
X004489Y0089556D01*
X00449D01*
X004235Y0084984D02*
X0042604Y008473D01*
X004234Y008497D02*
Y0087016D01*
X004235D02*
X0042604Y008727D01*
X0044636Y008473D02*
X004489Y0084984D01*
Y0087016D02*
X00449Y0087006D01*
Y008497D02*
Y0087006D01*
X0044636Y008727D02*
X004489Y0087016D01*
X00449D01*
X004235Y0082444D02*
X0042604Y008219D01*
X004234Y008243D02*
Y0084476D01*
X004235D02*
X0042604Y008473D01*
X0044636Y008219D02*
X004489Y0082444D01*
Y0084476D02*
X00449Y0084466D01*
Y008243D02*
Y0084466D01*
X0044636Y008473D02*
X004489Y0084476D01*
X00449D01*
X004235Y0079904D02*
X0042604Y007965D01*
X004234Y007989D02*
Y0081936D01*
X004235D02*
X0042604Y008219D01*
X0044636Y007965D02*
X004489Y0079904D01*
Y0081936D02*
X00449Y0081926D01*
Y007989D02*
Y0081926D01*
X0044636Y008219D02*
X004489Y0081936D01*
X00449D01*
X004235Y0077364D02*
X0042604Y007711D01*
X004234Y007735D02*
Y0079396D01*
X004235D02*
X0042604Y007965D01*
X0044636Y007711D02*
X004489Y0077364D01*
Y0079396D02*
X00449Y0079386D01*
Y007735D02*
Y0079386D01*
X0044636Y007965D02*
X004489Y0079396D01*
X00449D01*
X004489D02*
X00449D01*
X0044636Y007965D02*
X004489Y0079396D01*
X00449Y007735D02*
Y0079386D01*
X004489Y0079396D02*
X00449Y0079386D01*
X004489Y0074316D02*
X00449D01*
X0044636Y007457D02*
X004489Y0074316D01*
X0044636Y007457D02*
X0044646D01*
X00449Y0074824D01*
Y007227D02*
Y0074306D01*
X004489Y0074316D02*
X00449Y0074306D01*
Y0074824D02*
Y0076856D01*
X004489D02*
X00449D01*
X0044636Y007711D02*
X004489Y0076856D01*
X0044636Y007711D02*
X004489Y0077364D01*
Y0069236D02*
X00449D01*
X0044636Y006949D02*
X004489Y0069236D01*
X0044636Y006949D02*
X0044646D01*
X00449Y0069744D01*
Y006719D02*
Y0069226D01*
X004489Y0069236D02*
X00449Y0069226D01*
Y0069744D02*
Y0071776D01*
X004489D02*
X00449D01*
X0044636Y007203D02*
X004489Y0071776D01*
X0044636Y007203D02*
X004489Y0072284D01*
Y0064156D02*
X00449D01*
X0044636Y006441D02*
X004489Y0064156D01*
X0044636Y006441D02*
X0044646D01*
X00449Y0064664D01*
Y006211D02*
Y0064146D01*
X004489Y0064156D02*
X00449Y0064146D01*
Y0064664D02*
Y0066696D01*
X004489D02*
X00449D01*
X0044636Y006695D02*
X004489Y0066696D01*
X0044636Y006695D02*
X004489Y0067204D01*
Y0059076D02*
X00449D01*
X0044636Y005933D02*
X004489Y0059076D01*
X0044636Y005933D02*
X0044646D01*
X00449Y0059584D01*
Y005703D02*
Y0059066D01*
X004489Y0059076D02*
X00449Y0059066D01*
Y0059584D02*
Y0061616D01*
X004489D02*
X00449D01*
X0044636Y006187D02*
X004489Y0061616D01*
X0044636Y006187D02*
X004489Y0062124D01*
X004235Y0079396D02*
X0042604Y007965D01*
X004234Y007735D02*
Y0079396D01*
X004235Y0074316D02*
X0042604Y007457D01*
X004235Y0074824D02*
X0042604Y007457D01*
X004234Y007227D02*
Y0074316D01*
X004235Y0076856D02*
X0042604Y007711D01*
X004235Y0077364D02*
X0042604Y007711D01*
X004234Y0074824D02*
Y0076856D01*
X004235D01*
Y0069236D02*
X0042604Y006949D01*
X004235Y0069744D02*
X0042604Y006949D01*
X004234Y006719D02*
Y0069236D01*
X004235Y0071776D02*
X0042604Y007203D01*
X004235Y0072284D02*
X0042604Y007203D01*
X004234Y0069744D02*
Y0071776D01*
X004235D01*
Y0064156D02*
X0042604Y006441D01*
X004235Y0064664D02*
X0042604Y006441D01*
X004234Y006211D02*
Y0064156D01*
X004235Y0066696D02*
X0042604Y006695D01*
X004235Y0067204D02*
X0042604Y006695D01*
X004234Y0064664D02*
Y0066696D01*
X004235D01*
Y0059076D02*
X0042604Y005933D01*
X004235Y0059584D02*
X0042604Y005933D01*
X004234Y005703D02*
Y0059076D01*
X004235Y0061616D02*
X0042604Y006187D01*
X004235Y0062124D02*
X0042604Y006187D01*
X004234Y0059584D02*
Y0061616D01*
X004235D01*
X0044636Y005679D02*
X004489Y0057044D01*
X0044636Y005679D02*
X004489Y0056536D01*
X00449D01*
Y0054504D02*
Y0056536D01*
X004489Y0053996D02*
X00449Y0053986D01*
Y005195D02*
Y0053986D01*
X004234Y0056536D02*
X004235D01*
X004234Y0054504D02*
Y0056536D01*
X004235Y0057044D02*
X0042604Y005679D01*
X004235Y0056536D02*
X0042604Y005679D01*
X004234Y005195D02*
Y0053996D01*
X0044646Y005425D02*
X00449Y0054504D01*
X0044636Y005425D02*
X0044646D01*
X0044636D02*
X004489Y0053996D01*
X00449D01*
X004235Y0054504D02*
X0042604Y005425D01*
X004235Y0053996D02*
X0042604Y005425D01*
X004262Y005171D02*
X004462D01*
X0042604Y005425D02*
X0044636D01*
X004572Y004064D02*
X00559054D01*
Y003556D02*
Y004064D01*
X00555244Y003556D02*
X00559054D01*
X00555244D02*
Y00358648D01*
X00461518D02*
X00555244D01*
X00461518Y003556D02*
Y00358648D01*
X004572Y003556D02*
X00461518D01*
X004572D02*
Y004064D01*
X00463884Y00389716D02*
X00473384Y00399216D01*
X013613Y00292D02*
X0138166D01*
X0133096D02*
Y002921D01*
X013335Y0029464D01*
Y0029454D02*
Y0029464D01*
Y0029454D02*
X0133604Y00292D01*
X013105D02*
X0133086D01*
X0133096Y002921D01*
X0133604Y00292D02*
X0135636D01*
Y002921D01*
X013589Y0029464D01*
X0136144Y002921D01*
X0128016Y00292D02*
Y002921D01*
X012827Y0029464D01*
Y0029454D02*
Y0029464D01*
Y0029454D02*
X0128524Y00292D01*
X012597D02*
X0128006D01*
X0128016Y002921D01*
X0128524Y00292D02*
X0130556D01*
Y002921D01*
X013081Y0029464D01*
X0131064Y002921D01*
X013613Y003176D02*
X0138176D01*
X0133096Y003175D02*
X013335Y0031496D01*
X0133604Y003175D01*
X013105Y003176D02*
X0133096D01*
X0135636Y003175D02*
X013589Y0031496D01*
X0136144Y003175D01*
X0133604Y003176D02*
X0135636D01*
Y003175D02*
Y003176D01*
X0128016Y003175D02*
X012827Y0031496D01*
X0128524Y003175D01*
X012597Y003176D02*
X0128016D01*
X0130556Y003175D02*
X013081Y0031496D01*
X0131064Y003175D01*
X0128524Y003176D02*
X0130556D01*
Y003175D02*
Y003176D01*
X012573Y0029464D02*
X0125984Y002921D01*
X0125476D02*
X012573Y0029464D01*
X0125476Y00292D02*
Y002921D01*
X0123444Y00292D02*
X0125476D01*
X0122926D02*
X0122936Y002921D01*
X012089Y00292D02*
X0122926D01*
X0125476Y003175D02*
Y003176D01*
X0123444D02*
X0125476D01*
X012573Y0031496D02*
X0125984Y003175D01*
X0125476D02*
X012573Y0031496D01*
X012089Y003176D02*
X0122936D01*
X012319Y0029454D02*
X0123444Y00292D01*
X012319Y0029454D02*
Y0029464D01*
X0122936Y002921D02*
X012319Y0029464D01*
X0122936Y00292D02*
Y002921D01*
X012319Y0031496D02*
X0123444Y003175D01*
X0122936D02*
X012319Y0031496D01*
X012065Y002948D02*
Y003148D01*
X013843Y002948D02*
Y003148D01*
X012319Y0029454D02*
Y0031496D01*
X020105Y004813D02*
Y006363D01*
X02044266Y00573786D02*
Y006078D01*
X02044012Y005098D02*
Y00543814D01*
X021445Y00559054D02*
X02156255Y00570809D01*
X02111876Y00559054D02*
X021445D01*
X02164708Y00537464D02*
X021675Y00534672D01*
Y00512054D02*
Y00534672D01*
Y0057988D02*
Y00606054D01*
X020405Y005588D02*
X02101716D01*
X02164962Y00577342D02*
X021675Y0057988D01*
X020105Y004813D02*
X022015D01*
Y006363D01*
X020105D02*
X022015D01*
X020105Y002781D02*
Y004331D01*
X02044266Y00370586D02*
Y004046D01*
X02044012Y003066D02*
Y00340614D01*
X021445Y00355854D02*
X02156255Y00367609D01*
X02111876Y00355854D02*
X021445D01*
X02164708Y00334264D02*
X021675Y00331472D01*
Y00308854D02*
Y00331472D01*
Y0037668D02*
Y00402854D01*
X020405Y003556D02*
X02101716D01*
X02164962Y00374142D02*
X021675Y0037668D01*
X020105Y002781D02*
X022015D01*
Y004331D01*
X020105D02*
X022015D01*
X020105Y006845D02*
Y008395D01*
X02044266Y00776986D02*
Y00811D01*
X02044012Y00713D02*
Y00747014D01*
X021445Y00762254D02*
X02156255Y00774009D01*
X02111876Y00762254D02*
X021445D01*
X02164708Y00740664D02*
X021675Y00737872D01*
Y00715254D02*
Y00737872D01*
Y0078308D02*
Y00809254D01*
X020405Y00762D02*
X02101716D01*
X02164962Y00780542D02*
X021675Y0078308D01*
X020105Y006845D02*
X022015D01*
Y008395D01*
X020105D02*
X022015D01*
X020105Y008877D02*
Y010427D01*
X02044266Y00980186D02*
Y010142D01*
X02044012Y009162D02*
Y00950214D01*
X021445Y00965454D02*
X02156255Y00977209D01*
X02111876Y00965454D02*
X021445D01*
X02164708Y00943864D02*
X021675Y00941072D01*
Y00918454D02*
Y00941072D01*
Y0098628D02*
Y01012454D01*
X020405Y009652D02*
X02101716D01*
X02164962Y00983742D02*
X021675Y0098628D01*
X020105Y008877D02*
X022015D01*
Y010427D01*
X020105D02*
X022015D01*
X012058Y004953D02*
Y010033D01*
X013843D01*
X013849Y004954D02*
Y010034D01*
X012058Y004953D02*
X01280147D01*
X01310133D02*
X013843D01*
X013462Y00528D02*
Y00973D01*
X012446D02*
X013462D01*
X012446Y00528D02*
Y00973D01*
Y00528D02*
X013462D01*
X010923Y0053347D02*
X0110483D01*
X010923Y005588D02*
X011049D01*
X010923Y005842D02*
X011049D01*
X010922Y006096D02*
X011049D01*
X010922Y00635D02*
X011049D01*
X010922Y006604D02*
X011049D01*
X010922Y006858D02*
X011049D01*
X010668Y006985D02*
X010922D01*
X010668Y002985D02*
X011303D01*
X010668D02*
Y006985D01*
X014661Y005278D02*
X018161D01*
Y009978D01*
X014661D02*
X018161D01*
X014661Y005279D02*
Y009978D01*
X010922Y005334D02*
Y006985D01*
X011303Y002985D02*
Y005207D01*
X013843Y003175D02*
X016065D01*
X012065Y002794D02*
X013716D01*
X012065Y00254D02*
X016065D01*
Y003175D01*
X012065Y00254D02*
Y002794D01*
X012192D02*
Y002921D01*
X012446Y002794D02*
Y002921D01*
X0127Y002794D02*
Y002921D01*
X012954Y002794D02*
Y002921D01*
X013208Y002795D02*
Y002921D01*
X013462Y002795D02*
Y002921D01*
X0137153Y002795D02*
Y0029203D01*
X02133102Y01295D02*
Y01304997D01*
X02128104Y01299998D02*
X02138101D01*
X01714622Y0122666D02*
Y01236657D01*
X01709624Y01231658D02*
X01719621D01*
X01803278Y0141494D02*
Y01404943D01*
X01808276Y01409942D02*
X01798279D01*
X013581Y01244603D02*
X01344771D01*
X01351436Y01237939D02*
Y01251268D01*
X00990478Y004345D02*
Y00424503D01*
X00995476Y00429502D02*
X00985479D01*
X02133722Y0112506D02*
Y01135057D01*
X02128724Y01130058D02*
X02138721D01*
X016637Y005715D02*
X01643706D01*
X01650371Y00578164D01*
X01643706Y00584829D01*
X016637D01*
X01643706Y00591494D02*
Y00598158D01*
Y00594826D01*
X016637D01*
Y00591494D01*
Y00598158D01*
Y00608155D02*
X01643706D01*
X016637Y00621484D01*
X01643706D01*
Y00628148D02*
Y00634813D01*
Y00631481D01*
X016637D01*
Y00628148D01*
Y00634813D01*
Y00664803D02*
X01643706D01*
X01650371Y00671468D01*
X01643706Y00678132D01*
X016637D01*
X01643706Y00694794D02*
Y00688129D01*
X01647039Y00684797D01*
X01660368D01*
X016637Y00688129D01*
Y00694794D01*
X01660368Y00698126D01*
X01647039D01*
X01643706Y00694794D01*
Y0070479D02*
X016637D01*
Y00714787D01*
X01660368Y00718119D01*
X01647039D01*
X01643706Y00714787D01*
Y0070479D01*
Y00724784D02*
X01660368D01*
X016637Y00728116D01*
Y00734781D01*
X01660368Y00738113D01*
X01643706D01*
Y00744778D02*
X016637D01*
Y00758107D01*
X01643706Y007781D02*
Y00764771D01*
X016637D01*
Y007781D01*
X01653703Y00764771D02*
Y00771435D01*
X01647039Y00818087D02*
X01643706Y00814755D01*
Y0080809D01*
X01647039Y00804758D01*
X01650371D01*
X01653703Y0080809D01*
Y00814755D01*
X01657036Y00818087D01*
X01660368D01*
X016637Y00814755D01*
Y0080809D01*
X01660368Y00804758D01*
X01643706Y00824752D02*
Y00831416D01*
Y00828084D01*
X016637D01*
Y00824752D01*
Y00831416D01*
Y00841413D02*
X01643706D01*
X01650371Y00848077D01*
X01643706Y00854742D01*
X016637D01*
X01660368Y008814D02*
X016637Y00884732D01*
Y00891397D01*
X01660368Y00894729D01*
X01647039D01*
X01643706Y00891397D01*
Y00884732D01*
X01647039Y008814D01*
X01650371D01*
X01653703Y00884732D01*
Y00894729D01*
X01647039Y00901394D02*
X01643706Y00904726D01*
Y00911391D01*
X01647039Y00914723D01*
X01660368D01*
X016637Y00911391D01*
Y00904726D01*
X01660368Y00901394D01*
X01647039D01*
Y00921387D02*
X01643706Y00924719D01*
Y00931384D01*
X01647039Y00934716D01*
X01660368D01*
X016637Y00931384D01*
Y00924719D01*
X01660368Y00921387D01*
X01647039D01*
X016637Y00941381D02*
X01650371D01*
X01643706Y00948045D01*
X01650371Y0095471D01*
X016637D01*
X01653703D01*
Y00941381D01*
X01089986Y0037084D02*
X0110998Y00384169D01*
X01089986D02*
X0110998Y0037084D01*
X01089986Y00390834D02*
X0110998D01*
Y0040083D01*
X01106648Y00404163D01*
X01093319D01*
X01089986Y0040083D01*
Y00390834D01*
X01099983Y00410827D02*
Y00424156D01*
X01089986Y00430821D02*
X01093319D01*
X01099983Y00437485D01*
X01093319Y0044415D01*
X01089986D01*
X01099983Y00437485D02*
X0110998D01*
X01089986Y00450814D02*
X0110998D01*
X01103316D01*
X01089986Y00464143D01*
X01099983Y00454146D01*
X0110998Y00464143D01*
X01093319Y00470808D02*
X01089986Y0047414D01*
Y00480805D01*
X01093319Y00484137D01*
X01106648D01*
X0110998Y00480805D01*
Y0047414D01*
X01106648Y00470808D01*
X01093319D01*
X0110998Y00500798D02*
X01089986D01*
X01099983Y00490801D01*
Y0050413D01*
X0139954Y00299394D02*
X01412869Y002794D01*
Y00299394D02*
X0139954Y002794D01*
X01419534Y00299394D02*
Y002794D01*
X0142953D01*
X01432863Y00282732D01*
Y00296061D01*
X0142953Y00299394D01*
X01419534D01*
X01439527Y00289397D02*
X01452856D01*
X01459521Y00299394D02*
Y00296061D01*
X01466185Y00289397D01*
X0147285Y00296061D01*
Y00299394D01*
X01466185Y00289397D02*
Y002794D01*
X01479514Y00299394D02*
Y002794D01*
Y00286064D01*
X01492843Y00299394D01*
X01482847Y00289397D01*
X01492843Y002794D01*
X01499508Y00296061D02*
X0150284Y00299394D01*
X01509505D01*
X01512837Y00296061D01*
Y00282732D01*
X01509505Y002794D01*
X0150284D01*
X01499508Y00282732D01*
Y00296061D01*
X01529498Y002794D02*
Y00299394D01*
X01519501Y00289397D01*
X0153283D01*
D36*
X019183Y01179D02*
G03*
X019133Y011754I-000007J-000043D01*
G01*
X019136Y012008D02*
G03*
X01918327Y01196119I00004704J00000023D01*
G01*
X022479Y01197187D02*
X0225552D01*
X022479D02*
Y01225127D01*
X0225552D01*
X0232029Y01195917D02*
X0232791D01*
Y01223857D01*
X0232029D02*
X0232791D01*
X0232029Y01138767D02*
X0232791D01*
Y01110827D02*
Y01138767D01*
X0232029Y01110827D02*
X0232791D01*
X022479Y01140037D02*
X0225552D01*
X022479Y01112097D02*
Y01140037D01*
Y01112097D02*
X0225552D01*
Y01180677D02*
X0232029D01*
Y01241637D01*
X0225552D02*
X0232029D01*
X0225552Y01180677D02*
Y01241637D01*
Y01095587D02*
Y01156547D01*
X0232029D01*
Y01095587D02*
Y01156547D01*
X0225552Y01095587D02*
X0232029D01*
X022225Y01082887D02*
X023495D01*
Y01253067D01*
X022225D02*
X023495D01*
X022225Y01082887D02*
Y01253067D01*
X022479Y00993987D02*
X0225552D01*
X022479D02*
Y01021927D01*
X0225552D01*
X0232029Y00992717D02*
X0232791D01*
Y01020657D01*
X0232029D02*
X0232791D01*
X0232029Y00935567D02*
X0232791D01*
Y00907627D02*
Y00935567D01*
X0232029Y00907627D02*
X0232791D01*
X022479Y00936837D02*
X0225552D01*
X022479Y00908897D02*
Y00936837D01*
Y00908897D02*
X0225552D01*
Y00977477D02*
X0232029D01*
Y01038437D01*
X0225552D02*
X0232029D01*
X0225552Y00977477D02*
Y01038437D01*
Y00892387D02*
Y00953347D01*
X0232029D01*
Y00892387D02*
Y00953347D01*
X0225552Y00892387D02*
X0232029D01*
X022225Y00879687D02*
X023495D01*
Y01049867D01*
X022225D02*
X023495D01*
X022225Y00879687D02*
Y01049867D01*
X022479Y00790787D02*
X0225552D01*
X022479D02*
Y00818727D01*
X0225552D01*
X0232029Y00789517D02*
X0232791D01*
Y00817457D01*
X0232029D02*
X0232791D01*
X0232029Y00732367D02*
X0232791D01*
Y00704427D02*
Y00732367D01*
X0232029Y00704427D02*
X0232791D01*
X022479Y00733637D02*
X0225552D01*
X022479Y00705697D02*
Y00733637D01*
Y00705697D02*
X0225552D01*
Y00774277D02*
X0232029D01*
Y00835237D01*
X0225552D02*
X0232029D01*
X0225552Y00774277D02*
Y00835237D01*
Y00689187D02*
Y00750147D01*
X0232029D01*
Y00689187D02*
Y00750147D01*
X0225552Y00689187D02*
X0232029D01*
X022225Y00676487D02*
X023495D01*
Y00846667D01*
X022225D02*
X023495D01*
X022225Y00676487D02*
Y00846667D01*
X022479Y00587587D02*
X0225552D01*
X022479D02*
Y00615527D01*
X0225552D01*
X0232029Y00586317D02*
X0232791D01*
Y00614257D01*
X0232029D02*
X0232791D01*
X0232029Y00529167D02*
X0232791D01*
Y00501227D02*
Y00529167D01*
X0232029Y00501227D02*
X0232791D01*
X022479Y00530437D02*
X0225552D01*
X022479Y00502497D02*
Y00530437D01*
Y00502497D02*
X0225552D01*
Y00571077D02*
X0232029D01*
Y00632037D01*
X0225552D02*
X0232029D01*
X0225552Y00571077D02*
Y00632037D01*
Y00485987D02*
Y00546947D01*
X0232029D01*
Y00485987D02*
Y00546947D01*
X0225552Y00485987D02*
X0232029D01*
X022225Y00473287D02*
X023495D01*
Y00643467D01*
X022225D02*
X023495D01*
X022225Y00473287D02*
Y00643467D01*
X022479Y00384387D02*
X0225552D01*
X022479D02*
Y00412327D01*
X0225552D01*
X0232029Y00383117D02*
X0232791D01*
Y00411057D01*
X0232029D02*
X0232791D01*
X0232029Y00325967D02*
X0232791D01*
Y00298027D02*
Y00325967D01*
X0232029Y00298027D02*
X0232791D01*
X022479Y00327237D02*
X0225552D01*
X022479Y00299297D02*
Y00327237D01*
Y00299297D02*
X0225552D01*
Y00367877D02*
X0232029D01*
Y00428837D01*
X0225552D02*
X0232029D01*
X0225552Y00367877D02*
Y00428837D01*
Y00282787D02*
Y00343747D01*
X0232029D01*
Y00282787D02*
Y00343747D01*
X0225552Y00282787D02*
X0232029D01*
X022225Y00270087D02*
X023495D01*
Y00440267D01*
X022225D02*
X023495D01*
X022225Y00270087D02*
Y00440267D01*
D37*
X019183Y01179D02*
G03*
X01918327Y01196119I00011054J00008542D01*
G01*
X019374Y012131D02*
Y012255D01*
X018949D02*
X019374D01*
X018949D02*
Y012382D01*
X019374D01*
Y012506D01*
X018951D02*
X019374D01*
X018951D02*
Y012635D01*
X020069D01*
Y012522D02*
Y012635D01*
X019374Y011504D02*
Y011636D01*
X018949Y011504D02*
X019374D01*
X018949Y011383D02*
Y011504D01*
Y011383D02*
X019374D01*
Y011246D02*
Y011383D01*
X018948Y011246D02*
X019374D01*
X018948Y011119D02*
Y011246D01*
Y011119D02*
X020069D01*
Y01124D01*
X019607D02*
X020069D01*
X019607D02*
Y012522D01*
X020069D01*
X018947Y011636D02*
X019374D01*
X018947D02*
Y011754D01*
X018949Y012131D02*
X019374D01*
X018949Y012008D02*
Y012131D01*
X018947Y011754D02*
X019133D01*
X018949Y012008D02*
X019136D01*
D38*
X020577Y011437D02*
G03*
X020577Y011437I-00002J0D01*
G01*
X01974875Y011387D02*
Y012407D01*
X020597D01*
Y011387D02*
Y012407D01*
X01974875Y011387D02*
X020597D01*
D39*
X0144145Y00772414D02*
G03*
X0147955Y00772599I0001905J00000126D01*
G01*
Y00826701D02*
G03*
X0144145Y00826516I-0001905J-00000126D01*
G01*
X0222885Y01082887D02*
Y01252813D01*
Y01165437D02*
X023495D01*
X0222885Y01170517D02*
X023495D01*
X0222885Y00879687D02*
Y01049613D01*
Y00962237D02*
X023495D01*
X0222885Y00967317D02*
X023495D01*
X0222885Y00676487D02*
Y00846413D01*
Y00759037D02*
X023495D01*
X0222885Y00764117D02*
X023495D01*
X0222885Y00473287D02*
Y00643213D01*
Y00555837D02*
X023495D01*
X0222885Y00560917D02*
X023495D01*
X0222885Y00270087D02*
Y00440013D01*
Y00352637D02*
X023495D01*
X0222885Y00357717D02*
X023495D01*
X016637Y0026924D02*
X018415D01*
X016637Y003048D02*
Y003302D01*
X018415D01*
Y0026924D02*
Y003302D01*
X016637Y0026924D02*
Y003048D01*
X0180975Y00321818D02*
Y00329438D01*
X0179705Y00321818D02*
X0180975D01*
X0179705D02*
Y00329438D01*
X01708404Y00322072D02*
Y00329692D01*
X01695704Y00322072D02*
X01708404D01*
X01695704D02*
Y00329692D01*
X0238125Y012954D02*
Y0137922D01*
X0224282Y012954D02*
Y0137922D01*
Y012954D02*
X0238125D01*
X0224282Y0137922D02*
X0238125D01*
X0236347Y012954D02*
Y0137922D01*
X0147955Y00772929D02*
Y0082627D01*
X0144145Y00773183D02*
Y00826524D01*
X01450848Y0080518D02*
X01469898D01*
X01460754D02*
Y008128D01*
X01450848Y00794766D02*
X01469644D01*
X01460754Y00786892D02*
Y00794766D01*
D40*
X020536Y0134567D02*
Y01346611D01*
X020358Y01345789D02*
Y0134673D01*
X016599Y0126947D02*
Y01270411D01*
X016421Y01269589D02*
Y0127053D01*
X017183Y01371189D02*
Y0137213D01*
X017361Y0137107D02*
Y01372011D01*
X0152347Y007658D02*
X01524411D01*
X01523589Y007836D02*
X0152453D01*
X0152347Y008166D02*
X01524411D01*
X01523589Y008344D02*
X0152453D01*
X014186Y0074877D02*
Y00749711D01*
X014008Y00748889D02*
Y0074983D01*
X015024Y01294989D02*
Y0129593D01*
X015202Y0129487D02*
Y01295811D01*
X011595Y00767939D02*
Y0076888D01*
X011773Y0076782D02*
Y00768761D01*
X011773Y0070432D02*
Y00705261D01*
X011595Y00704439D02*
Y0070538D01*
X020917Y0116787D02*
Y01168811D01*
X020739Y01167989D02*
Y0116893D01*
X0179324Y0033274D02*
X01786242D01*
X0179324Y00337405D01*
X01786242D01*
X01787408Y00344403D02*
X01786242Y00343237D01*
Y00340904D01*
X01787408Y00339738D01*
X01792074D01*
X0179324Y00340904D01*
Y00343237D01*
X01792074Y00344403D01*
X0183642Y0033274D02*
X01829422D01*
Y00336239D01*
X01830589Y00337405D01*
X01832921D01*
X01834087Y00336239D01*
Y0033274D01*
Y00335073D02*
X0183642Y00337405D01*
X01830589Y00344403D02*
X01829422Y00343237D01*
Y00340904D01*
X01830589Y00339738D01*
X01831755D01*
X01832921Y00340904D01*
Y00343237D01*
X01834087Y00344403D01*
X01835254D01*
X0183642Y00343237D01*
Y00340904D01*
X01835254Y00339738D01*
X01829422Y00346735D02*
Y00351401D01*
Y00349068D01*
X0183642D01*
X01762009Y00337405D02*
X01760842Y00336239D01*
Y00333906D01*
X01762009Y0033274D01*
X01766674D01*
X0176784Y00333906D01*
Y00336239D01*
X01766674Y00337405D01*
X01764341D01*
Y00335073D01*
X0176784Y00339738D02*
X01760842D01*
X0176784Y00344403D01*
X01760842D01*
Y00346735D02*
X0176784D01*
Y00350234D01*
X01766674Y00351401D01*
X01762009D01*
X01760842Y00350234D01*
Y00346735D01*
X0174244Y0033274D02*
X01736442D01*
X01738441Y00334739D01*
X01736442Y00336739D01*
X0174244D01*
X01736442Y00338738D02*
Y00340737D01*
Y00339738D01*
X0174244D01*
Y00338738D01*
Y00340737D01*
X01737442Y00347735D02*
X01736442Y00346735D01*
Y00344736D01*
X01737442Y00343736D01*
X01738441D01*
X01739441Y00344736D01*
Y00346735D01*
X01740441Y00347735D01*
X0174144D01*
X0174244Y00346735D01*
Y00344736D01*
X0174144Y00343736D01*
X01736442Y00352733D02*
Y00350734D01*
X01737442Y00349734D01*
X0174144D01*
X0174244Y00350734D01*
Y00352733D01*
X0174144Y00353733D01*
X01737442D01*
X01736442Y00352733D01*
X01711208Y00337405D02*
X01710042Y00336239D01*
Y00333906D01*
X01711208Y0033274D01*
X01712375D01*
X01713541Y00333906D01*
Y00336239D01*
X01714707Y00337405D01*
X01715874D01*
X0171704Y00336239D01*
Y00333906D01*
X01715874Y0033274D01*
X01711208Y00344403D02*
X01710042Y00343237D01*
Y00340904D01*
X01711208Y00339738D01*
X01715874D01*
X0171704Y00340904D01*
Y00343237D01*
X01715874Y00344403D01*
X01710042Y00346735D02*
X0171704D01*
X01714707D01*
X01710042Y00351401D01*
X01713541Y00347902D01*
X0171704Y00351401D01*
X0169164Y0033274D02*
X01684642D01*
X01686975Y00335073D01*
X01684642Y00337405D01*
X0169164D01*
X01684642Y00343237D02*
Y00340904D01*
X01685809Y00339738D01*
X01690474D01*
X0169164Y00340904D01*
Y00343237D01*
X01690474Y00344403D01*
X01685809D01*
X01684642Y00343237D01*
X01685809Y00351401D02*
X01684642Y00350234D01*
Y00347902D01*
X01685809Y00346735D01*
X01686975D01*
X01688141Y00347902D01*
Y00350234D01*
X01689307Y00351401D01*
X01690474D01*
X0169164Y00350234D01*
Y00347902D01*
X01690474Y00346735D01*
X01684642Y00353733D02*
Y00356066D01*
Y00354899D01*
X0169164D01*
Y00353733D01*
Y00356066D01*
D41*
X01364684Y013208D02*
X01366683D01*
X01370682Y01324799D01*
X01366683Y01328797D01*
X01364684D01*
X01370682Y01324799D02*
X0137668D01*
Y01332796D02*
Y01336795D01*
Y01334796D01*
X01364684D01*
X01366683Y01332796D01*
X01418024Y0079248D02*
X0143002Y00800477D01*
X01418024D02*
X0143002Y0079248D01*
Y00804476D02*
Y00808475D01*
Y00806476D01*
X01418024D01*
X01420023Y00804476D01*
X0049276Y00349816D02*
Y00341819D01*
X00496759Y0033782D01*
X00500757Y00341819D01*
Y00349816D01*
X00504756Y0033782D02*
Y00349816D01*
X00510754D01*
X00512753Y00347817D01*
Y00343818D01*
X00510754Y00341819D01*
X00504756D01*
X00508755D02*
X00512753Y0033782D01*
X00516752D02*
X00520751D01*
X00518752D01*
Y00349816D01*
X00516752Y00347817D01*
X01936184Y0067818D02*
X01946181D01*
X0194818Y00680179D01*
Y00684178D01*
X01946181Y00686177D01*
X01936184D01*
X01938183Y00690176D02*
X01936184Y00692176D01*
Y00696174D01*
X01938183Y00698174D01*
X01940183D01*
X01942182Y00696174D01*
X01944181Y00698174D01*
X01946181D01*
X0194818Y00696174D01*
Y00692176D01*
X01946181Y00690176D01*
X01944181D01*
X01942182Y00692176D01*
X01940183Y00690176D01*
X01938183D01*
X01942182Y00692176D02*
Y00696174D01*
X01936184Y0047498D02*
X01946181D01*
X0194818Y00476979D01*
Y00480978D01*
X01946181Y00482977D01*
X01936184D01*
Y00486976D02*
Y00494973D01*
X01938183D01*
X01946181Y00486976D01*
X0194818D01*
X01936184Y0026924D02*
X01946181D01*
X0194818Y00271239D01*
Y00275238D01*
X01946181Y00277237D01*
X01936184D01*
Y00289233D02*
X01938183Y00285235D01*
X01942182Y00281236D01*
X01946181D01*
X0194818Y00283235D01*
Y00287234D01*
X01946181Y00289233D01*
X01944181D01*
X01942182Y00287234D01*
Y00281236D01*
X01936184Y0088138D02*
X01946181D01*
X0194818Y00883379D01*
Y00887378D01*
X01946181Y00889377D01*
X01936184D01*
Y00901374D02*
Y00893376D01*
X01942182D01*
X01940183Y00897375D01*
Y00899374D01*
X01942182Y00901374D01*
X01946181D01*
X0194818Y00899374D01*
Y00895376D01*
X01946181Y00893376D01*
X02047944Y0124968D02*
X02057941D01*
X0205994Y01251679D01*
Y01255678D01*
X02057941Y01257677D01*
X02047944D01*
X0205994Y01267674D02*
X02047944D01*
X02053942Y01261676D01*
Y01269673D01*
X01206754Y01031298D02*
Y01021301D01*
X01208753Y01019302D01*
X01212752D01*
X01214751Y01021301D01*
Y01031298D01*
X0121875Y01029299D02*
X0122075Y01031298D01*
X01224748D01*
X01226748Y01029299D01*
Y01027299D01*
X01224748Y010253D01*
X01222749D01*
X01224748D01*
X01226748Y01023301D01*
Y01021301D01*
X01224748Y01019302D01*
X0122075D01*
X0121875Y01021301D01*
X00841444Y0032004D02*
X00851441D01*
X0085344Y00322039D01*
Y00326038D01*
X00851441Y00328037D01*
X00841444D01*
X0085344Y00340033D02*
Y00332036D01*
X00845443Y00340033D01*
X00843443D01*
X00841444Y00338034D01*
Y00334035D01*
X00843443Y00332036D01*
X00892244Y0038354D02*
X00902241D01*
X0090424Y00385539D01*
Y00389538D01*
X00902241Y00391537D01*
X00892244D01*
X0090424Y00395536D02*
Y00399535D01*
Y00397536D01*
X00892244D01*
X00894243Y00395536D01*
X02011426Y00848614D02*
Y0086061D01*
X02017424D01*
X02019423Y00858611D01*
Y00854612D01*
X02017424Y00852613D01*
X02011426D01*
X02015425D02*
X02019423Y00848614D01*
X02023422Y0086061D02*
Y00848614D01*
X0203142D01*
X02041416D02*
Y0086061D01*
X02035418Y00854612D01*
X02043416D01*
X02011426Y00645414D02*
Y0065741D01*
X02017424D01*
X02019423Y00655411D01*
Y00651412D01*
X02017424Y00649413D01*
X02011426D01*
X02015425D02*
X02019423Y00645414D01*
X02023422Y0065741D02*
Y00645414D01*
X0203142D01*
X02035418Y00655411D02*
X02037418Y0065741D01*
X02041416D01*
X02043416Y00655411D01*
Y00653411D01*
X02041416Y00651412D01*
X02039417D01*
X02041416D01*
X02043416Y00649413D01*
Y00647413D01*
X02041416Y00645414D01*
X02037418D01*
X02035418Y00647413D01*
X02011426Y00442214D02*
Y0045421D01*
X02017424D01*
X02019423Y00452211D01*
Y00448212D01*
X02017424Y00446213D01*
X02011426D01*
X02015425D02*
X02019423Y00442214D01*
X02023422Y0045421D02*
Y00442214D01*
X0203142D01*
X02043416D02*
X02035418D01*
X02043416Y00450211D01*
Y00452211D01*
X02041416Y0045421D01*
X02037418D01*
X02035418Y00452211D01*
X02011426Y01051814D02*
Y0106381D01*
X02017424D01*
X02019423Y01061811D01*
Y01057812D01*
X02017424Y01055813D01*
X02011426D01*
X02015425D02*
X02019423Y01051814D01*
X02023422Y0106381D02*
Y01051814D01*
X0203142D01*
X02035418D02*
X02039417D01*
X02037418D01*
Y0106381D01*
X02035418Y01061811D01*
X0189738Y008255D02*
X01885384D01*
Y00831498D01*
X01887383Y00833497D01*
X01891382D01*
X01893381Y00831498D01*
Y008255D01*
Y00829499D02*
X0189738Y00833497D01*
Y00837496D02*
Y00841495D01*
Y00839495D01*
X01885384D01*
X01887383Y00837496D01*
X01885384Y00847493D02*
Y0085549D01*
X01887383D01*
X01895381Y00847493D01*
X0189738D01*
Y006223D02*
X01885384D01*
Y00628298D01*
X01887383Y00630297D01*
X01891382D01*
X01893381Y00628298D01*
Y006223D01*
Y00626299D02*
X0189738Y00630297D01*
Y00634296D02*
Y00638295D01*
Y00636296D01*
X01885384D01*
X01887383Y00634296D01*
X01885384Y0065229D02*
X01887383Y00648292D01*
X01891382Y00644293D01*
X01895381D01*
X0189738Y00646292D01*
Y00650291D01*
X01895381Y0065229D01*
X01893381D01*
X01891382Y00650291D01*
Y00644293D01*
X0189738Y004191D02*
X01885384D01*
Y00425098D01*
X01887383Y00427097D01*
X01891382D01*
X01893381Y00425098D01*
Y004191D01*
Y00423099D02*
X0189738Y00427097D01*
Y00431096D02*
Y00435095D01*
Y00433096D01*
X01885384D01*
X01887383Y00431096D01*
X01885384Y0044909D02*
Y00441093D01*
X01891382D01*
X01889383Y00445092D01*
Y00447091D01*
X01891382Y0044909D01*
X01895381D01*
X0189738Y00447091D01*
Y00443092D01*
X01895381Y00441093D01*
X0189738Y010287D02*
X01885384D01*
Y01034698D01*
X01887383Y01036697D01*
X01891382D01*
X01893381Y01034698D01*
Y010287D01*
Y01032699D02*
X0189738Y01036697D01*
Y01040696D02*
Y01044695D01*
Y01042695D01*
X01885384D01*
X01887383Y01040696D01*
X0189738Y01056691D02*
X01885384D01*
X01891382Y01050693D01*
Y0105869D01*
X0172466Y0038608D02*
Y00398076D01*
X01730658D01*
X01732657Y00396077D01*
Y00392078D01*
X01730658Y00390079D01*
X0172466D01*
X01728659D02*
X01732657Y0038608D01*
X01736656D02*
X01740655D01*
X01738656D01*
Y00398076D01*
X01736656Y00396077D01*
X01746653D02*
X01748652Y00398076D01*
X01752651D01*
X0175465Y00396077D01*
Y00394077D01*
X01752651Y00392078D01*
X01750652D01*
X01752651D01*
X0175465Y00390079D01*
Y00388079D01*
X01752651Y0038608D01*
X01748652D01*
X01746653Y00388079D01*
X0179832Y0126238D02*
Y01274376D01*
X01804318D01*
X01806317Y01272377D01*
Y01268378D01*
X01804318Y01266379D01*
X0179832D01*
X01802319D02*
X01806317Y0126238D01*
X01810316D02*
X01814315D01*
X01812316D01*
Y01274376D01*
X01810316Y01272377D01*
X0182831Y0126238D02*
X01820313D01*
X0182831Y01270377D01*
Y01272377D01*
X01826311Y01274376D01*
X01822312D01*
X01820313Y01272377D01*
X0179832Y0131572D02*
Y01327716D01*
X01804318D01*
X01806317Y01325717D01*
Y01321718D01*
X01804318Y01319719D01*
X0179832D01*
X01802319D02*
X01806317Y0131572D01*
X01810316D02*
X01814315D01*
X01812316D01*
Y01327716D01*
X01810316Y01325717D01*
X01820313Y0131572D02*
X01824312D01*
X01822312D01*
Y01327716D01*
X01820313Y01325717D01*
X0160528Y0131572D02*
Y01327716D01*
X01611278D01*
X01613277Y01325717D01*
Y01321718D01*
X01611278Y01319719D01*
X0160528D01*
X01609279D02*
X01613277Y0131572D01*
X01617276D02*
X01621275D01*
X01619276D01*
Y01327716D01*
X01617276Y01325717D01*
X01627273D02*
X01629272Y01327716D01*
X01633271D01*
X0163527Y01325717D01*
Y01317719D01*
X01633271Y0131572D01*
X01629272D01*
X01627273Y01317719D01*
Y01325717D01*
X0166878Y0114554D02*
X01656784D01*
Y01151538D01*
X01658783Y01153537D01*
X01662782D01*
X01664781Y01151538D01*
Y0114554D01*
Y01149539D02*
X0166878Y01153537D01*
X01666781Y01157536D02*
X0166878Y01159536D01*
Y01163534D01*
X01666781Y01165534D01*
X01658783D01*
X01656784Y01163534D01*
Y01159536D01*
X01658783Y01157536D01*
X01660783D01*
X01662782Y01159536D01*
Y01165534D01*
X0142748Y0094742D02*
Y00959416D01*
X01433478D01*
X01435477Y00957417D01*
Y00953418D01*
X01433478Y00951419D01*
X0142748D01*
X01431479D02*
X01435477Y0094742D01*
X01439476Y00957417D02*
X01441476Y00959416D01*
X01445474D01*
X01447473Y00957417D01*
Y00955417D01*
X01445474Y00953418D01*
X01447473Y00951419D01*
Y00949419D01*
X01445474Y0094742D01*
X01441476D01*
X01439476Y00949419D01*
Y00951419D01*
X01441476Y00953418D01*
X01439476Y00955417D01*
Y00957417D01*
X01441476Y00953418D02*
X01445474D01*
X0142748Y0090932D02*
Y00921316D01*
X01433478D01*
X01435477Y00919317D01*
Y00915318D01*
X01433478Y00913319D01*
X0142748D01*
X01431479D02*
X01435477Y0090932D01*
X01439476Y00921316D02*
X01447473D01*
Y00919317D01*
X01439476Y00911319D01*
Y0090932D01*
X0142748Y0087122D02*
Y00883216D01*
X01433478D01*
X01435477Y00881217D01*
Y00877218D01*
X01433478Y00875219D01*
X0142748D01*
X01431479D02*
X01435477Y0087122D01*
X01447473Y00883216D02*
X01443475Y00881217D01*
X01439476Y00877218D01*
Y00873219D01*
X01441476Y0087122D01*
X01445474D01*
X01447473Y00873219D01*
Y00875219D01*
X01445474Y00877218D01*
X01439476D01*
X0095504Y0027432D02*
Y00286316D01*
X00961038D01*
X00963037Y00284317D01*
Y00280318D01*
X00961038Y00278319D01*
X0095504D01*
X00959039D02*
X00963037Y0027432D01*
X00975033Y00286316D02*
X00967036D01*
Y00280318D01*
X00971035Y00282317D01*
X00973034D01*
X00975033Y00280318D01*
Y00276319D01*
X00973034Y0027432D01*
X00969035D01*
X00967036Y00276319D01*
X010287Y0033782D02*
Y00349816D01*
X01034698D01*
X01036697Y00347817D01*
Y00343818D01*
X01034698Y00341819D01*
X010287D01*
X01032699D02*
X01036697Y0033782D01*
X01046694D02*
Y00349816D01*
X01040696Y00343818D01*
X01048693D01*
X0143764Y0136652D02*
Y01378516D01*
X01443638D01*
X01445637Y01376517D01*
Y01372518D01*
X01443638Y01370519D01*
X0143764D01*
X01441639D02*
X01445637Y0136652D01*
X01449636Y01376517D02*
X01451635Y01378516D01*
X01455634D01*
X01457634Y01376517D01*
Y01374517D01*
X01455634Y01372518D01*
X01453635D01*
X01455634D01*
X01457634Y01370519D01*
Y01368519D01*
X01455634Y0136652D01*
X01451635D01*
X01449636Y01368519D01*
X0136398Y0114808D02*
Y01160076D01*
X01369978D01*
X01371977Y01158077D01*
Y01154078D01*
X01369978Y01152079D01*
X0136398D01*
X01367979D02*
X01371977Y0114808D01*
X01383974D02*
X01375976D01*
X01383974Y01156077D01*
Y01158077D01*
X01381974Y01160076D01*
X01377975D01*
X01375976Y01158077D01*
X0136398Y0118872D02*
Y01200716D01*
X01369978D01*
X01371977Y01198717D01*
Y01194718D01*
X01369978Y01192719D01*
X0136398D01*
X01367979D02*
X01371977Y0118872D01*
X01375976D02*
X01379975D01*
X01377975D01*
Y01200716D01*
X01375976Y01198717D01*
X0067818Y00362516D02*
Y0035052D01*
X00686177D01*
X00698174Y00360517D02*
X00696174Y00362516D01*
X00692176D01*
X00690176Y00360517D01*
Y00358517D01*
X00692176Y00356518D01*
X00696174D01*
X00698174Y00354519D01*
Y00352519D01*
X00696174Y0035052D01*
X00692176D01*
X00690176Y00352519D01*
X00702172Y0035052D02*
X00706171D01*
X00704172D01*
Y00362516D01*
X00702172Y00360517D01*
X01936184Y008255D02*
X0194818D01*
Y00833497D01*
X01936184Y00845493D02*
Y00837496D01*
X0194818D01*
Y00845493D01*
X01942182Y00837496D02*
Y00841495D01*
X01936184Y00849492D02*
X0194818D01*
Y0085549D01*
X01946181Y0085749D01*
X01938183D01*
X01936184Y0085549D01*
Y00849492D01*
Y00869486D02*
X01938183Y00865487D01*
X01942182Y00861488D01*
X01946181D01*
X0194818Y00863488D01*
Y00867486D01*
X01946181Y00869486D01*
X01944181D01*
X01942182Y00867486D01*
Y00861488D01*
X01936184Y006223D02*
X0194818D01*
Y00630297D01*
X01936184Y00642293D02*
Y00634296D01*
X0194818D01*
Y00642293D01*
X01942182Y00634296D02*
Y00638295D01*
X01936184Y00646292D02*
X0194818D01*
Y0065229D01*
X01946181Y0065429D01*
X01938183D01*
X01936184Y0065229D01*
Y00646292D01*
Y00666286D02*
Y00658288D01*
X01942182D01*
X01940183Y00662287D01*
Y00664286D01*
X01942182Y00666286D01*
X01946181D01*
X0194818Y00664286D01*
Y00660288D01*
X01946181Y00658288D01*
X01936184Y004191D02*
X0194818D01*
Y00427097D01*
X01936184Y00439094D02*
Y00431096D01*
X0194818D01*
Y00439094D01*
X01942182Y00431096D02*
Y00435095D01*
X01936184Y00443092D02*
X0194818D01*
Y0044909D01*
X01946181Y0045109D01*
X01938183D01*
X01936184Y0044909D01*
Y00443092D01*
X0194818Y00461086D02*
X01936184D01*
X01942182Y00455088D01*
Y00463086D01*
X01936184Y010287D02*
X0194818D01*
Y01036697D01*
X01936184Y01048693D02*
Y01040696D01*
X0194818D01*
Y01048693D01*
X01942182Y01040696D02*
Y01044695D01*
X01936184Y01052692D02*
X0194818D01*
Y0105869D01*
X01946181Y0106069D01*
X01938183D01*
X01936184Y0105869D01*
Y01052692D01*
X01938183Y01064688D02*
X01936184Y01066688D01*
Y01070686D01*
X01938183Y01072686D01*
X01940183D01*
X01942182Y01070686D01*
Y01068687D01*
Y01070686D01*
X01944181Y01072686D01*
X01946181D01*
X0194818Y01070686D01*
Y01066688D01*
X01946181Y01064688D01*
X01611064Y0135128D02*
X0162306D01*
Y01359277D01*
X01611064Y01371273D02*
Y01363276D01*
X0162306D01*
Y01371273D01*
X01617062Y01363276D02*
Y01367275D01*
X01611064Y01375272D02*
X0162306D01*
Y0138127D01*
X01621061Y0138327D01*
X01613063D01*
X01611064Y0138127D01*
Y01375272D01*
X0162306Y01395266D02*
Y01387268D01*
X01615063Y01395266D01*
X01613063D01*
X01611064Y01393266D01*
Y01389268D01*
X01613063Y01387268D01*
X01611064Y0118872D02*
X0162306D01*
Y01196717D01*
X01611064Y01208714D02*
Y01200716D01*
X0162306D01*
Y01208714D01*
X01617062Y01200716D02*
Y01204715D01*
X01611064Y01212712D02*
X0162306D01*
Y0121871D01*
X01621061Y0122071D01*
X01613063D01*
X01611064Y0121871D01*
Y01212712D01*
X0162306Y01224708D02*
Y01228707D01*
Y01226708D01*
X01611064D01*
X01613063Y01224708D01*
X00389324Y0044958D02*
X0040132D01*
Y00457577D01*
X00391323Y00469574D02*
X00389324Y00467574D01*
Y00463576D01*
X00391323Y00461576D01*
X00399321D01*
X0040132Y00463576D01*
Y00467574D01*
X00399321Y00469574D01*
X00389324Y00473572D02*
X0040132D01*
Y0047957D01*
X00399321Y0048157D01*
X00391323D01*
X00389324Y0047957D01*
Y00473572D01*
X0040132Y00485568D02*
Y00489567D01*
Y00487568D01*
X00389324D01*
X00391323Y00485568D01*
X017272Y01228656D02*
Y0121666D01*
X01735197D01*
X01739196D02*
X01743195D01*
X01741196D01*
Y01228656D01*
X01739196Y01226657D01*
X02306697Y01403916D02*
X02302699D01*
X02304698D01*
Y01393919D01*
X02302699Y0139192D01*
X02300699D01*
X022987Y01393919D01*
X02310696Y01403916D02*
Y0139192D01*
X02316694D01*
X02318694Y01393919D01*
Y01401917D01*
X02316694Y01403916D01*
X02310696D01*
X0233069Y01401917D02*
X0232869Y01403916D01*
X02324692D01*
X02322692Y01401917D01*
Y01393919D01*
X02324692Y0139192D01*
X0232869D01*
X0233069Y01393919D01*
X02334688Y0139192D02*
X02338687D01*
X02336688D01*
Y01403916D01*
X02334688Y01401917D01*
X01974284Y0141732D02*
Y01421319D01*
Y01419319D01*
X0198628D01*
Y0141732D01*
Y01421319D01*
X01976283Y01435314D02*
X01974284Y01433315D01*
Y01429316D01*
X01976283Y01427317D01*
X01984281D01*
X0198628Y01429316D01*
Y01433315D01*
X01984281Y01435314D01*
X0198628Y0144731D02*
Y01439313D01*
X01978283Y0144731D01*
X01976283D01*
X01974284Y01445311D01*
Y01441312D01*
X01976283Y01439313D01*
X01379924Y0124206D02*
Y01246059D01*
Y01244059D01*
X0139192D01*
Y0124206D01*
Y01246059D01*
X01381923Y01260054D02*
X01379924Y01258055D01*
Y01254056D01*
X01381923Y01252057D01*
X01389921D01*
X0139192Y01254056D01*
Y01258055D01*
X01389921Y01260054D01*
X0139192Y01264053D02*
Y01268052D01*
Y01266052D01*
X01379924D01*
X01381923Y01264053D01*
X022225Y00865436D02*
Y0085344D01*
Y00859438D01*
X02230497D01*
Y00865436D01*
Y0085344D01*
X02234496Y00865436D02*
Y0085344D01*
X02240494D01*
X02242493Y00855439D01*
Y00863437D01*
X02240494Y00865436D01*
X02234496D01*
X02246492Y00855439D02*
X02248492Y0085344D01*
X0225249D01*
X0225449Y00855439D01*
Y00863437D01*
X0225249Y00865436D01*
X02248492D01*
X02246492Y00863437D01*
Y00861437D01*
X02248492Y00859438D01*
X0225449D01*
X022225Y00662236D02*
Y0065024D01*
Y00656238D01*
X02230497D01*
Y00662236D01*
Y0065024D01*
X02234496Y00662236D02*
Y0065024D01*
X02240494D01*
X02242493Y00652239D01*
Y00660237D01*
X02240494Y00662236D01*
X02234496D01*
X02246492Y00660237D02*
X02248492Y00662236D01*
X0225249D01*
X0225449Y00660237D01*
Y00658237D01*
X0225249Y00656238D01*
X0225449Y00654239D01*
Y00652239D01*
X0225249Y0065024D01*
X02248492D01*
X02246492Y00652239D01*
Y00654239D01*
X02248492Y00656238D01*
X02246492Y00658237D01*
Y00660237D01*
X02248492Y00656238D02*
X0225249D01*
X022225Y00459036D02*
Y0044704D01*
Y00453038D01*
X02230497D01*
Y00459036D01*
Y0044704D01*
X02234496Y00459036D02*
Y0044704D01*
X02240494D01*
X02242493Y00449039D01*
Y00457037D01*
X02240494Y00459036D01*
X02234496D01*
X02246492D02*
X0225449D01*
Y00457037D01*
X02246492Y00449039D01*
Y0044704D01*
X022225Y01271836D02*
Y0125984D01*
Y01265838D01*
X02230497D01*
Y01271836D01*
Y0125984D01*
X02234496Y01271836D02*
Y0125984D01*
X02240494D01*
X02242493Y01261839D01*
Y01269837D01*
X02240494Y01271836D01*
X02234496D01*
X0225449D02*
X02250491Y01269837D01*
X02246492Y01265838D01*
Y01261839D01*
X02248492Y0125984D01*
X0225249D01*
X0225449Y01261839D01*
Y01263839D01*
X0225249Y01265838D01*
X02246492D01*
X022225Y01068636D02*
Y0105664D01*
Y01062638D01*
X02230497D01*
Y01068636D01*
Y0105664D01*
X02234496Y01068636D02*
Y0105664D01*
X02240494D01*
X02242493Y01058639D01*
Y01066637D01*
X02240494Y01068636D01*
X02234496D01*
X0225449D02*
X02246492D01*
Y01062638D01*
X02250491Y01064637D01*
X0225249D01*
X0225449Y01062638D01*
Y01058639D01*
X0225249Y0105664D01*
X02248492D01*
X02246492Y01058639D01*
X01646624Y0028956D02*
X0165862D01*
X01652622D01*
Y00297557D01*
X01646624D01*
X0165862D01*
X01646624Y00301556D02*
X0165862D01*
Y00307554D01*
X01656621Y00309554D01*
X01648623D01*
X01646624Y00307554D01*
Y00301556D01*
X0165862Y0031955D02*
X01646624D01*
X01652622Y00313552D01*
Y0032155D01*
X011684Y00311716D02*
Y0029972D01*
Y00305718D01*
X01176397D01*
Y00311716D01*
Y0029972D01*
X01180396Y00311716D02*
Y0029972D01*
X01186394D01*
X01188393Y00301719D01*
Y00309717D01*
X01186394Y00311716D01*
X01180396D01*
X01192392Y00309717D02*
X01194392Y00311716D01*
X0119839D01*
X0120039Y00309717D01*
Y00307717D01*
X0119839Y00305718D01*
X01196391D01*
X0119839D01*
X0120039Y00303719D01*
Y00301719D01*
X0119839Y0029972D01*
X01194392D01*
X01192392Y00301719D01*
X01110684Y0070358D02*
X0112268D01*
X01116682D01*
Y00711577D01*
X01110684D01*
X0112268D01*
X01110684Y00715576D02*
X0112268D01*
Y00721574D01*
X01120681Y00723574D01*
X01112683D01*
X01110684Y00721574D01*
Y00715576D01*
X0112268Y0073557D02*
Y00727572D01*
X01114683Y0073557D01*
X01112683D01*
X01110684Y0073357D01*
Y00729572D01*
X01112683Y00727572D01*
X01730444Y0079756D02*
X0174244D01*
X01736442D01*
Y00805557D01*
X01730444D01*
X0174244D01*
X01730444Y00809556D02*
X0174244D01*
Y00815554D01*
X01740441Y00817553D01*
X01732443D01*
X01730444Y00815554D01*
Y00809556D01*
X0174244Y00821552D02*
Y00825551D01*
Y00823552D01*
X01730444D01*
X01732443Y00821552D01*
X01974284Y008255D02*
X0198628D01*
Y00831498D01*
X01984281Y00833497D01*
X01976283D01*
X01974284Y00831498D01*
Y008255D01*
Y00845493D02*
Y00837496D01*
X01980282D01*
X01978283Y00841495D01*
Y00843494D01*
X01980282Y00845493D01*
X01984281D01*
X0198628Y00843494D01*
Y00839495D01*
X01984281Y00837496D01*
X01974284Y006223D02*
X0198628D01*
Y00628298D01*
X01984281Y00630297D01*
X01976283D01*
X01974284Y00628298D01*
Y006223D01*
X0198628Y00640294D02*
X01974284D01*
X01980282Y00634296D01*
Y00642293D01*
X01974284Y004191D02*
X0198628D01*
Y00425098D01*
X01984281Y00427097D01*
X01976283D01*
X01974284Y00425098D01*
Y004191D01*
X01976283Y00431096D02*
X01974284Y00433096D01*
Y00437094D01*
X01976283Y00439094D01*
X01978283D01*
X01980282Y00437094D01*
Y00435095D01*
Y00437094D01*
X01982281Y00439094D01*
X01984281D01*
X0198628Y00437094D01*
Y00433096D01*
X01984281Y00431096D01*
X01974284Y010287D02*
X0198628D01*
Y01034698D01*
X01984281Y01036697D01*
X01976283D01*
X01974284Y01034698D01*
Y010287D01*
X0198628Y01048693D02*
Y01040696D01*
X01978283Y01048693D01*
X01976283D01*
X01974284Y01046694D01*
Y01042695D01*
X01976283Y01040696D01*
X0169418Y01086416D02*
Y0107442D01*
X01700178D01*
X01702177Y01076419D01*
Y01084417D01*
X01700178Y01086416D01*
X0169418D01*
X01706176Y0107442D02*
X01710175D01*
X01708176D01*
Y01086416D01*
X01706176Y01084417D01*
X01186343Y00698877D02*
X01184344Y00696878D01*
Y00692879D01*
X01186343Y0069088D01*
X01194341D01*
X0119634Y00692879D01*
Y00696878D01*
X01194341Y00698877D01*
X0119634Y00702876D02*
Y00706875D01*
Y00704875D01*
X01184344D01*
X01186343Y00702876D01*
X01184344Y0072087D02*
Y00712873D01*
X01190342D01*
X01188343Y00716872D01*
Y00718871D01*
X01190342Y0072087D01*
X01194341D01*
X0119634Y00718871D01*
Y00714872D01*
X01194341Y00712873D01*
X01186343Y00762377D02*
X01184344Y00760378D01*
Y00756379D01*
X01186343Y0075438D01*
X01194341D01*
X0119634Y00756379D01*
Y00760378D01*
X01194341Y00762377D01*
X0119634Y00766376D02*
Y00770375D01*
Y00768375D01*
X01184344D01*
X01186343Y00766376D01*
X0119634Y00782371D02*
X01184344D01*
X01190342Y00776373D01*
Y0078437D01*
X01407323Y00698877D02*
X01405324Y00696878D01*
Y00692879D01*
X01407323Y0069088D01*
X01415321D01*
X0141732Y00692879D01*
Y00696878D01*
X01415321Y00698877D01*
X0141732Y00702876D02*
Y00706875D01*
Y00704875D01*
X01405324D01*
X01407323Y00702876D01*
Y00712873D02*
X01405324Y00714872D01*
Y00718871D01*
X01407323Y0072087D01*
X01409323D01*
X01411322Y00718871D01*
Y00716872D01*
Y00718871D01*
X01413321Y0072087D01*
X01415321D01*
X0141732Y00718871D01*
Y00714872D01*
X01415321Y00712873D01*
X01625763Y01262757D02*
X01623764Y01260758D01*
Y01256759D01*
X01625763Y0125476D01*
X01633761D01*
X0163576Y01256759D01*
Y01260758D01*
X01633761Y01262757D01*
X0163576Y01266756D02*
Y01270755D01*
Y01268755D01*
X01623764D01*
X01625763Y01266756D01*
X0163576Y0128475D02*
Y01276753D01*
X01627763Y0128475D01*
X01625763D01*
X01623764Y01282751D01*
Y01278752D01*
X01625763Y01276753D01*
X01671483Y01260217D02*
X01669484Y01258218D01*
Y01254219D01*
X01671483Y0125222D01*
X01679481D01*
X0168148Y01254219D01*
Y01258218D01*
X01679481Y01260217D01*
X0168148Y01264216D02*
Y01268215D01*
Y01266216D01*
X01669484D01*
X01671483Y01264216D01*
X0168148Y01274213D02*
Y01278212D01*
Y01276212D01*
X01669484D01*
X01671483Y01274213D01*
X02082923Y01215227D02*
X02080924Y01217226D01*
X02076925D01*
X02074926Y01215227D01*
Y01207229D01*
X02076925Y0120523D01*
X02080924D01*
X02082923Y01207229D01*
X02086922Y0120523D02*
X02090921D01*
X02088922D01*
Y01217226D01*
X02086922Y01215227D01*
X02096919D02*
X02098918Y01217226D01*
X02102917D01*
X02104916Y01215227D01*
Y01207229D01*
X02102917Y0120523D01*
X02098918D01*
X02096919Y01207229D01*
Y01215227D01*
X02115181Y01212179D02*
X02113182Y01214178D01*
X02109183D01*
X02107184Y01212179D01*
Y01204181D01*
X02109183Y01202182D01*
X02113182D01*
X02115181Y01204181D01*
X0211918D02*
X0212118Y01202182D01*
X02125178D01*
X02127177Y01204181D01*
Y01212179D01*
X02125178Y01214178D01*
X0212118D01*
X0211918Y01212179D01*
Y01210179D01*
X0212118Y0120818D01*
X02127177D01*
X01557397Y00777077D02*
X01555398Y00779076D01*
X01551399D01*
X015494Y00777077D01*
Y00769079D01*
X01551399Y0076708D01*
X01555398D01*
X01557397Y00769079D01*
X01561396Y00777077D02*
X01563396Y00779076D01*
X01567394D01*
X01569393Y00777077D01*
Y00775077D01*
X01567394Y00773078D01*
X01569393Y00771079D01*
Y00769079D01*
X01567394Y0076708D01*
X01563396D01*
X01561396Y00769079D01*
Y00771079D01*
X01563396Y00773078D01*
X01561396Y00775077D01*
Y00777077D01*
X01563396Y00773078D02*
X01567394D01*
X01557397Y00830417D02*
X01555398Y00832416D01*
X01551399D01*
X015494Y00830417D01*
Y00822419D01*
X01551399Y0082042D01*
X01555398D01*
X01557397Y00822419D01*
X01561396Y00832416D02*
X01569393D01*
Y00830417D01*
X01561396Y00822419D01*
Y0082042D01*
X01722283Y01404997D02*
X01720284Y01402998D01*
Y01398999D01*
X01722283Y01397D01*
X01730281D01*
X0173228Y01398999D01*
Y01402998D01*
X01730281Y01404997D01*
X01720284Y01416994D02*
X01722283Y01412995D01*
X01726282Y01408996D01*
X01730281D01*
X0173228Y01410995D01*
Y01414994D01*
X01730281Y01416994D01*
X01728281D01*
X01726282Y01414994D01*
Y01408996D01*
X02039783Y01382137D02*
X02037784Y01380138D01*
Y01376139D01*
X02039783Y0137414D01*
X02047781D01*
X0204978Y01376139D01*
Y01380138D01*
X02047781Y01382137D01*
X02037784Y01394133D02*
Y01386136D01*
X02043782D01*
X02041783Y01390135D01*
Y01392134D01*
X02043782Y01394133D01*
X02047781D01*
X0204978Y01392134D01*
Y01388136D01*
X02047781Y01386136D01*
X01760383Y01369437D02*
X01758384Y01367438D01*
Y01363439D01*
X01760383Y0136144D01*
X01768381D01*
X0177038Y01363439D01*
Y01367438D01*
X01768381Y01369437D01*
X0177038Y01379434D02*
X01758384D01*
X01764382Y01373436D01*
Y01381434D01*
X02128683Y01407537D02*
X02126684Y01405538D01*
Y01401539D01*
X02128683Y0139954D01*
X02136681D01*
X0213868Y01401539D01*
Y01405538D01*
X02136681Y01407537D01*
X02128683Y01411536D02*
X02126684Y01413535D01*
Y01417534D01*
X02128683Y01419534D01*
X02130683D01*
X02132682Y01417534D01*
Y01415535D01*
Y01417534D01*
X02134681Y01419534D01*
X02136681D01*
X0213868Y01417534D01*
Y01413535D01*
X02136681Y01411536D01*
X01529243Y01293237D02*
X01527244Y01291238D01*
Y01287239D01*
X01529243Y0128524D01*
X01537241D01*
X0153924Y01287239D01*
Y01291238D01*
X01537241Y01293237D01*
X0153924Y01305233D02*
Y01297236D01*
X01531243Y01305233D01*
X01529243D01*
X01527244Y01303234D01*
Y01299236D01*
X01529243Y01297236D01*
X01026323Y00391537D02*
X01024324Y00389538D01*
Y00385539D01*
X01026323Y0038354D01*
X01034321D01*
X0103632Y00385539D01*
Y00389538D01*
X01034321Y00391537D01*
X0103632Y00395536D02*
Y00399535D01*
Y00397536D01*
X01024324D01*
X01026323Y00395536D01*
X011557Y01378516D02*
Y0136652D01*
X01161698D01*
X01163697Y01368519D01*
Y01370519D01*
X01161698Y01372518D01*
X011557D01*
X01161698D01*
X01163697Y01374517D01*
Y01376517D01*
X01161698Y01378516D01*
X011557D01*
X01167696D02*
X01175694D01*
X01171695D01*
Y0136652D01*
X01179692D02*
X01183691D01*
X01181692D01*
Y01378516D01*
X01179692Y01376517D01*
X01720498Y0073152D02*
Y00743516D01*
X017145Y00737518D01*
X01722497D01*
X01726496Y00743516D02*
Y00735519D01*
X01730495Y0073152D01*
X01734494Y00735519D01*
Y00743516D01*
X01738492Y00741517D02*
X01740492Y00743516D01*
X0174449D01*
X0174649Y00741517D01*
Y00739517D01*
X0174449Y00737518D01*
X01742491D01*
X0174449D01*
X0174649Y00735519D01*
Y00733519D01*
X0174449Y0073152D01*
X01740492D01*
X01738492Y00733519D01*
X01720498Y0070612D02*
Y00718116D01*
X017145Y00712118D01*
X01722497D01*
X01726496Y00718116D02*
Y00710119D01*
X01730495Y0070612D01*
X01734494Y00710119D01*
Y00718116D01*
X01738492Y00716117D02*
X01740492Y00718116D01*
X0174449D01*
X0174649Y00716117D01*
Y00714117D01*
X0174449Y00712118D01*
X01742491D01*
X0174449D01*
X0174649Y00710119D01*
Y00708119D01*
X0174449Y0070612D01*
X01740492D01*
X01738492Y00708119D01*
X01829177Y00716117D02*
X01827178Y00718116D01*
X01823179D01*
X0182118Y00716117D01*
Y00708119D01*
X01823179Y0070612D01*
X01827178D01*
X01829177Y00708119D01*
Y00712118D01*
X01825179D01*
X01833176Y0070612D02*
Y00718116D01*
X01841174Y0070612D01*
Y00718116D01*
X01845172D02*
Y0070612D01*
X0185117D01*
X0185317Y00708119D01*
Y00716117D01*
X0185117Y00718116D01*
X01845172D01*
X01829177Y00741517D02*
X01827178Y00743516D01*
X01823179D01*
X0182118Y00741517D01*
Y00733519D01*
X01823179Y0073152D01*
X01827178D01*
X01829177Y00733519D01*
Y00737518D01*
X01825179D01*
X01833176Y0073152D02*
Y00743516D01*
X01841174Y0073152D01*
Y00743516D01*
X01845172D02*
Y0073152D01*
X0185117D01*
X0185317Y00733519D01*
Y00741517D01*
X0185117Y00743516D01*
X01845172D01*
X0182118Y0075692D02*
Y00768916D01*
X01827178D01*
X01829177Y00766917D01*
Y00762918D01*
X01827178Y00760919D01*
X0182118D01*
X01825179D02*
X01829177Y0075692D01*
X01841174Y00766917D02*
X01839174Y00768916D01*
X01835175D01*
X01833176Y00766917D01*
Y00764917D01*
X01835175Y00762918D01*
X01839174D01*
X01841174Y00760919D01*
Y00758919D01*
X01839174Y0075692D01*
X01835175D01*
X01833176Y00758919D01*
X01845172Y00768916D02*
X0185317D01*
X01849171D01*
Y0075692D01*
X0182118Y0078232D02*
Y00794316D01*
X01827178D01*
X01829177Y00792317D01*
Y00788318D01*
X01827178Y00786319D01*
X0182118D01*
X01825179D02*
X01829177Y0078232D01*
X01833176Y00794316D02*
X01841174Y0078232D01*
Y00794316D02*
X01833176Y0078232D01*
X0182118Y00819716D02*
X01829177D01*
X01825179D01*
Y0080772D01*
X01833176Y00819716D02*
X01841174Y0080772D01*
Y00819716D02*
X01833176Y0080772D01*
X0182118Y0085852D02*
Y00870516D01*
X01827178D01*
X01829177Y00868517D01*
Y00864518D01*
X01827178Y00862519D01*
X0182118D01*
X01825179D02*
X01829177Y0085852D01*
X01833176Y00870516D02*
X01837175D01*
X01835175D01*
Y0085852D01*
X01833176D01*
X01837175D01*
X01733198Y00946716D02*
X01729199D01*
X017272Y00944717D01*
Y00936719D01*
X01729199Y0093472D01*
X01733198D01*
X01735197Y00936719D01*
Y00944717D01*
X01733198Y00946716D01*
X01739196Y0093472D02*
Y00946716D01*
X01747193Y0093472D01*
Y00946716D01*
X0179578Y00681097D02*
Y006731D01*
X01787783Y00681097D01*
X01785783D01*
X01783784Y00679098D01*
Y00675099D01*
X01785783Y006731D01*
Y00685096D02*
X01783784Y00687095D01*
Y00691094D01*
X01785783Y00693093D01*
X01793781D01*
X0179578Y00691094D01*
Y00687095D01*
X01793781Y00685096D01*
X01785783D01*
X0177038Y006731D02*
Y00677099D01*
Y00675099D01*
X01758384D01*
X01760383Y006731D01*
X01768381Y00683097D02*
X0177038Y00685096D01*
Y00689095D01*
X01768381Y00691094D01*
X01760383D01*
X01758384Y00689095D01*
Y00685096D01*
X01760383Y00683097D01*
X01762383D01*
X01764382Y00685096D01*
Y00691094D01*
X0179578Y00968117D02*
Y0096012D01*
X01787783Y00968117D01*
X01785783D01*
X01783784Y00966118D01*
Y00962119D01*
X01785783Y0096012D01*
X0177038D02*
Y00964119D01*
Y00962119D01*
X01758384D01*
X01760383Y0096012D01*
X0231648Y00459036D02*
X02324477D01*
X02320479D01*
Y0044704D01*
X02328476Y00459036D02*
Y0044704D01*
X02334474D01*
X02336474Y00449039D01*
Y00451039D01*
X02334474Y00453038D01*
X02328476D01*
X02334474D01*
X02336474Y00455037D01*
Y00457037D01*
X02334474Y00459036D01*
X02328476D01*
X02340472Y0044704D02*
X02344471D01*
X02342472D01*
Y00459036D01*
X02340472Y00457037D01*
X0231394Y00662236D02*
X02321937D01*
X02317939D01*
Y0065024D01*
X02325936Y00662236D02*
Y0065024D01*
X02331934D01*
X02333934Y00652239D01*
Y00654239D01*
X02331934Y00656238D01*
X02325936D01*
X02331934D01*
X02333934Y00658237D01*
Y00660237D01*
X02331934Y00662236D01*
X02325936D01*
X0234593Y0065024D02*
X02337932D01*
X0234593Y00658237D01*
Y00660237D01*
X0234393Y00662236D01*
X02339932D01*
X02337932Y00660237D01*
X0231394Y00865436D02*
X02321937D01*
X02317939D01*
Y0085344D01*
X02325936Y00865436D02*
Y0085344D01*
X02331934D01*
X02333934Y00855439D01*
Y00857439D01*
X02331934Y00859438D01*
X02325936D01*
X02331934D01*
X02333934Y00861437D01*
Y00863437D01*
X02331934Y00865436D01*
X02325936D01*
X02337932Y00863437D02*
X02339932Y00865436D01*
X0234393D01*
X0234593Y00863437D01*
Y00861437D01*
X0234393Y00859438D01*
X02341931D01*
X0234393D01*
X0234593Y00857439D01*
Y00855439D01*
X0234393Y0085344D01*
X02339932D01*
X02337932Y00855439D01*
X0231648Y01068636D02*
X02324477D01*
X02320479D01*
Y0105664D01*
X02328476Y01068636D02*
Y0105664D01*
X02334474D01*
X02336474Y01058639D01*
Y01060639D01*
X02334474Y01062638D01*
X02328476D01*
X02334474D01*
X02336474Y01064637D01*
Y01066637D01*
X02334474Y01068636D01*
X02328476D01*
X0234647Y0105664D02*
Y01068636D01*
X02340472Y01062638D01*
X0234847D01*
X02207423Y0112268D02*
X02205424Y01124679D01*
Y01128678D01*
X02203425Y01130677D01*
X0221742Y01142673D02*
Y01134676D01*
X02209423Y01142673D01*
X02207423D01*
X02205424Y01140674D01*
Y01136675D01*
X02207423Y01134676D01*
X0221742Y0115467D02*
Y01146672D01*
X02209423Y0115467D01*
X02207423D01*
X02205424Y0115267D01*
Y01148672D01*
X02207423Y01146672D01*
Y01158668D02*
X02205424Y01160668D01*
Y01164666D01*
X02207423Y01166666D01*
X02215421D01*
X0221742Y01164666D01*
Y01160668D01*
X02215421Y01158668D01*
X02207423D01*
X02205424Y01170665D02*
X02213421D01*
X0221742Y01174663D01*
X02213421Y01178662D01*
X02205424D01*
X0221742Y01182661D02*
X02209423D01*
X02205424Y01186659D01*
X02209423Y01190658D01*
X0221742D01*
X02211422D01*
Y01182661D01*
X02207423Y01202654D02*
X02205424Y01200655D01*
Y01196656D01*
X02207423Y01194657D01*
X02215421D01*
X0221742Y01196656D01*
Y01200655D01*
X02215421Y01202654D01*
X0183896Y0042672D02*
X01826964D01*
Y00432718D01*
X01828963Y00434717D01*
X01832962D01*
X01834961Y00432718D01*
Y0042672D01*
Y00430719D02*
X0183896Y00434717D01*
X01826964Y00446713D02*
Y00438716D01*
X0183896D01*
Y00446713D01*
X01832962Y00438716D02*
Y00442715D01*
X01828963Y0045871D02*
X01826964Y0045671D01*
Y00452712D01*
X01828963Y00450712D01*
X01830963D01*
X01832962Y00452712D01*
Y0045671D01*
X01834961Y0045871D01*
X01836961D01*
X0183896Y0045671D01*
Y00452712D01*
X01836961Y00450712D01*
X01826964Y00470706D02*
Y00462708D01*
X0183896D01*
Y00470706D01*
X01832962Y00462708D02*
Y00466707D01*
X01826964Y00474705D02*
Y00482702D01*
Y00478703D01*
X0183896D01*
D42*
X019683Y011898D02*
D03*
M02*
