M48
;Layer_Color=9474304
;FILE_FORMAT=4:4
METRIC,LZ
;TYPE=PLATED
T1F00S00C0.7000
T2F00S00C0.8000
T3F00S00C0.9000
T4F00S00C1.0000
T5F00S00C1.2000
T7F00S00C1.3000
T8F00S00C1.5240
T9F00S00C1.6000
T10F00S00C1.9050
T11F00S00C2.5000
%
T01
X010414Y003048
X012446Y0038862
X0184658
X018288Y004064
X017399Y0042672
X0170434
X0126492Y004064
X010414Y00508
X009779Y006858
Y009017
T02
X004826Y00381
X00508
X005334
X009144Y003429
Y003048
X01016
Y003429
X009906Y0038386
X016891Y003683
X017907
X019431Y00381
X018923Y003048
Y004064
X019431
X018923Y00508
Y006096
X019431
Y005842
X018923Y007112
X019431Y007874
X017907Y0047752
Y0042672
X013716Y00508
Y005334
Y005588
Y005842
Y006096
Y00635
Y006604
Y006858
Y007112
Y007366
Y00762
Y007874
X014097Y00762
Y007366
X014605Y007757
X015113Y007747
X015367
X012192Y007874
Y00762
Y007366
Y007112
Y006858
Y006604
Y00635
Y006096
Y005842
Y005588
Y005334
Y00508
X011684Y0069215
Y0071755
Y0075565
Y0078105
X009906Y0040386
X012192Y008128
Y008382
Y008636
Y00889
Y009144
Y009398
Y009652
Y009906
X013716
Y009652
Y009398
Y009144
Y00889
Y008636
Y008382
Y008128
X014605Y008245
Y008763
Y009144
Y009525
X015621
Y009144
Y008763
X015367Y008255
X015113
X014986Y011557
X01397
X016891Y011049
X018923Y01016
X019431
Y009906
X018923Y009144
Y008128
X019431
X020828Y011557
Y011811
X021336Y011757
Y011557
X020447Y013335
Y013589
X018669Y012954
Y012446
X017653
Y012954
X017526Y013208
X017272Y013589
Y013843
X018034
Y013643
X01651Y013589
Y013843
Y013208
Y012827
Y012573
Y012192
Y011938
X016891Y012065
X017145Y012573
Y012773
X015113Y012827
X014859
Y012573
Y012319
X014986Y011938
X01397
X014097Y012319
Y012573
Y012827
Y013081
X013716Y013054
Y012854
X01397Y013462
X014986
X014859Y013081
X015113
T03
X012446Y0035814
X014224
X008763Y0041402
Y0047498
X007874Y0057658
Y0068072
X016002Y008128
Y010922
X0157226Y012573
X0151384
X013335Y013589
Y0142748
T04
X007366Y003556
X008128
X008763
Y003302
Y003048
X009271Y003683
Y003937
X012192Y003048
X012446
X0127
X012954
X013208
X013462
X013716
X016891
X017145
X017399
X017653
X017907
X018161
X019431
Y003302
Y003556
X019812Y003048
Y004064
Y00508
X019431
Y005334
Y005588
X019812Y006096
Y007112
X019431
Y007366
Y00762
X017907
X017653
Y007874
X017907
Y007366
X017653
Y007112
X017907
X011176Y006858
Y006604
Y00635
Y006096
Y005842
Y005588
Y005334
X009271Y004191
X004362Y005298
Y005552
Y005806
Y00606
Y006314
Y006568
Y006822
Y007076
Y00733
Y007584
Y007838
Y008092
Y008346
Y0086
Y008854
Y009108
X017653Y009144
Y009398
X017907
Y009144
Y00889
X017653
Y008636
Y008382
Y008128
X017907
Y008382
Y008636
X019431Y009144
Y009398
Y009652
X019812Y009144
Y008128
Y01016
X018034Y0114935
Y0118745
X020047Y011727
X020447Y011557
Y011897
Y012237
X020047Y012067
X021336Y013335
Y013685
T05
X0207518Y004572
X021336
Y006604
X0207518
Y008636
X021336
T07
X020445Y002956
X020245Y003556
X021665Y002956
Y004156
Y004988
Y006188
Y00702
X020445
X020245Y00762
X020445Y006188
X020245Y005588
X020445Y004988
Y004156
Y00822
Y009052
X020245Y009652
X020445Y010252
X021665
Y009052
Y00822
X019812Y013335
Y013589
Y013843
X013081Y012446
X011049
T08
X02286Y00313267
Y00397933
Y00516467
Y00601133
Y00719667
Y00804333
Y00922867
Y01007533
Y01126067
Y01210733
T09
X017272Y010795
X018796
T10
X019296Y011876
T11
X009862Y004748
X004362
X009862Y014048
X004362
M30
