%FSTAX44Y44*%
%MOMM*%
G71*
G01*
G75*
G04 Layer_Color=255*
%ADD10C,0.6000*%
%ADD11C,1.0000*%
%ADD12C,1.5000*%
%ADD13C,2.0000*%
%ADD14O,2.0000X1.6000*%
%ADD15C,3.8100*%
%ADD16C,1.6000*%
%ADD17O,1.6000X2.0000*%
G04:AMPARAMS|DCode=18|XSize=1.6mm|YSize=2mm|CornerRadius=0.4mm|HoleSize=0mm|Usage=FLASHONLY|Rotation=180.000|XOffset=0mm|YOffset=0mm|HoleType=Round|Shape=RoundedRectangle|*
%AMROUNDEDRECTD18*
21,1,1.6000,1.2000,0,0,180.0*
21,1,0.8000,2.0000,0,0,180.0*
1,1,0.8000,-0.4000,0.6000*
1,1,0.8000,0.4000,0.6000*
1,1,0.8000,0.4000,-0.6000*
1,1,0.8000,-0.4000,-0.6000*
%
%ADD18ROUNDEDRECTD18*%
G04:AMPARAMS|DCode=19|XSize=2.54mm|YSize=4.064mm|CornerRadius=0.635mm|HoleSize=0mm|Usage=FLASHONLY|Rotation=180.000|XOffset=0mm|YOffset=0mm|HoleType=Round|Shape=RoundedRectangle|*
%AMROUNDEDRECTD19*
21,1,2.5400,2.7940,0,0,180.0*
21,1,1.2700,4.0640,0,0,180.0*
1,1,1.2700,-0.6350,1.3970*
1,1,1.2700,0.6350,1.3970*
1,1,1.2700,0.6350,-1.3970*
1,1,1.2700,-0.6350,-1.3970*
%
%ADD19ROUNDEDRECTD19*%
G04:AMPARAMS|DCode=20|XSize=4.064mm|YSize=2.54mm|CornerRadius=0.635mm|HoleSize=0mm|Usage=FLASHONLY|Rotation=180.000|XOffset=0mm|YOffset=0mm|HoleType=Round|Shape=RoundedRectangle|*
%AMROUNDEDRECTD20*
21,1,4.0640,1.2700,0,0,180.0*
21,1,2.7940,2.5400,0,0,180.0*
1,1,1.2700,-1.3970,0.6350*
1,1,1.2700,1.3970,0.6350*
1,1,1.2700,1.3970,-0.6350*
1,1,1.2700,-1.3970,-0.6350*
%
%ADD20ROUNDEDRECTD20*%
%ADD21C,2.5400*%
G04:AMPARAMS|DCode=22|XSize=2.032mm|YSize=2.032mm|CornerRadius=0.508mm|HoleSize=0mm|Usage=FLASHONLY|Rotation=90.000|XOffset=0mm|YOffset=0mm|HoleType=Round|Shape=RoundedRectangle|*
%AMROUNDEDRECTD22*
21,1,2.0320,1.0160,0,0,90.0*
21,1,1.0160,2.0320,0,0,90.0*
1,1,1.0160,0.5080,0.5080*
1,1,1.0160,0.5080,-0.5080*
1,1,1.0160,-0.5080,-0.5080*
1,1,1.0160,-0.5080,0.5080*
%
%ADD22ROUNDEDRECTD22*%
%ADD23C,2.0320*%
%ADD24O,2.5000X1.9000*%
%ADD25C,2.5000*%
%ADD26O,1.6000X1.4000*%
%ADD27O,1.6000X1.3000*%
%ADD28C,1.8000*%
%ADD29O,2.5000X1.6000*%
%ADD30O,2.0000X3.0000*%
%ADD31C,1.4000*%
%ADD32C,1.2000*%
%ADD33C,2.5000*%
%ADD34C,0.5000*%
D14*
X017653Y009398D02*
D03*
Y009144D02*
D03*
Y00889D02*
D03*
Y008636D02*
D03*
Y008382D02*
D03*
Y008128D02*
D03*
Y007874D02*
D03*
Y00762D02*
D03*
Y007366D02*
D03*
Y007112D02*
D03*
X017907D02*
D03*
Y007366D02*
D03*
Y00762D02*
D03*
Y007874D02*
D03*
Y008128D02*
D03*
Y008382D02*
D03*
Y008636D02*
D03*
Y00889D02*
D03*
Y009144D02*
D03*
Y009398D02*
D03*
X014097Y013081D02*
D03*
Y012827D02*
D03*
Y012573D02*
D03*
Y012319D02*
D03*
X014859D02*
D03*
Y012573D02*
D03*
Y012827D02*
D03*
Y013081D02*
D03*
X011176Y006858D02*
D03*
Y006604D02*
D03*
Y00635D02*
D03*
Y006096D02*
D03*
Y005842D02*
D03*
Y005588D02*
D03*
Y005334D02*
D03*
D15*
X02286Y01126067D02*
D03*
Y01210733D02*
D03*
Y00922867D02*
D03*
Y01007533D02*
D03*
Y00719667D02*
D03*
Y00804333D02*
D03*
Y00516467D02*
D03*
Y00601133D02*
D03*
Y00313267D02*
D03*
Y00397933D02*
D03*
D16*
X017907Y0047752D02*
D03*
Y0042672D02*
D03*
Y003683D02*
D03*
X016891D02*
D03*
X019431Y003556D02*
D03*
Y003302D02*
D03*
Y003048D02*
D03*
X019812D02*
D03*
Y004064D02*
D03*
X019431Y00381D02*
D03*
Y004064D02*
D03*
X018923D02*
D03*
Y003048D02*
D03*
X019431Y005588D02*
D03*
Y005334D02*
D03*
Y00508D02*
D03*
X019812D02*
D03*
Y006096D02*
D03*
X019431Y005842D02*
D03*
Y006096D02*
D03*
X018923D02*
D03*
Y00508D02*
D03*
X019431Y00762D02*
D03*
Y007366D02*
D03*
Y007112D02*
D03*
X019812D02*
D03*
Y008128D02*
D03*
X019431Y007874D02*
D03*
Y008128D02*
D03*
X018923D02*
D03*
Y007112D02*
D03*
X019431Y009652D02*
D03*
Y009398D02*
D03*
Y009144D02*
D03*
X019812D02*
D03*
Y01016D02*
D03*
X019431Y009906D02*
D03*
Y01016D02*
D03*
X018923D02*
D03*
Y009144D02*
D03*
X021336Y013335D02*
D03*
Y013685D02*
D03*
X020447Y013335D02*
D03*
Y013589D02*
D03*
X018669Y012954D02*
D03*
X017653D02*
D03*
Y012446D02*
D03*
X018669D02*
D03*
X018034Y0118745D02*
D03*
Y0114935D02*
D03*
X016891Y011049D02*
D03*
Y012065D02*
D03*
X01651Y012192D02*
D03*
Y011938D02*
D03*
Y012573D02*
D03*
Y012827D02*
D03*
X017526Y013208D02*
D03*
X01651D02*
D03*
X017272Y013843D02*
D03*
Y013589D02*
D03*
X01651Y013843D02*
D03*
Y013589D02*
D03*
X014605Y009144D02*
D03*
X015621D02*
D03*
X014605Y008763D02*
D03*
X015621D02*
D03*
X014605Y009525D02*
D03*
X015621D02*
D03*
X015113Y007747D02*
D03*
X015367D02*
D03*
X015113Y008255D02*
D03*
X015367D02*
D03*
X014605Y008245D02*
D03*
Y007757D02*
D03*
X014097Y007366D02*
D03*
Y00762D02*
D03*
X01397Y011557D02*
D03*
X014986D02*
D03*
X01397Y011938D02*
D03*
X014986D02*
D03*
X015113Y013081D02*
D03*
Y012827D02*
D03*
X01397Y013462D02*
D03*
X014986D02*
D03*
X011684Y0078105D02*
D03*
Y0075565D02*
D03*
Y0069215D02*
D03*
Y0071755D02*
D03*
X009144Y003429D02*
D03*
X01016D02*
D03*
Y003048D02*
D03*
X009144D02*
D03*
X009271Y004191D02*
D03*
Y003937D02*
D03*
Y003683D02*
D03*
X020828Y011557D02*
D03*
Y011811D02*
D03*
X012192Y009906D02*
D03*
Y009652D02*
D03*
Y009398D02*
D03*
Y009144D02*
D03*
Y00889D02*
D03*
Y008636D02*
D03*
Y008382D02*
D03*
Y008128D02*
D03*
Y007874D02*
D03*
Y00762D02*
D03*
Y007366D02*
D03*
Y007112D02*
D03*
Y006858D02*
D03*
Y006604D02*
D03*
Y00635D02*
D03*
Y006096D02*
D03*
Y005842D02*
D03*
Y005588D02*
D03*
Y005334D02*
D03*
Y00508D02*
D03*
X013716Y009906D02*
D03*
Y009652D02*
D03*
Y009398D02*
D03*
Y009144D02*
D03*
Y00889D02*
D03*
Y008636D02*
D03*
Y008382D02*
D03*
Y008128D02*
D03*
Y007874D02*
D03*
Y00762D02*
D03*
Y007366D02*
D03*
Y007112D02*
D03*
Y006858D02*
D03*
Y006604D02*
D03*
Y00635D02*
D03*
Y006096D02*
D03*
Y005842D02*
D03*
Y005588D02*
D03*
Y005334D02*
D03*
Y00508D02*
D03*
D17*
X017145Y003048D02*
D03*
X017907D02*
D03*
X017653D02*
D03*
X017399D02*
D03*
X016891D02*
D03*
X005334Y00381D02*
D03*
X00508D02*
D03*
X004826D02*
D03*
X012192Y003048D02*
D03*
X012446D02*
D03*
X0127D02*
D03*
X012954D02*
D03*
X013208D02*
D03*
X013462D02*
D03*
X013716D02*
D03*
D18*
X018161D02*
D03*
D19*
X0224155Y013335D02*
D03*
X0230505D02*
D03*
D20*
X0226695Y013843D02*
D03*
D21*
X019296Y011876D02*
D03*
D22*
X020447Y011557D02*
D03*
D23*
X020047Y011727D02*
D03*
X020447Y011897D02*
D03*
X020047Y012067D02*
D03*
X020447Y012237D02*
D03*
D24*
X019812Y013335D02*
D03*
Y013843D02*
D03*
Y013589D02*
D03*
D25*
X018796Y010795D02*
D03*
X017272D02*
D03*
X011049Y012446D02*
D03*
X013081D02*
D03*
X008128Y003556D02*
D03*
X007366D02*
D03*
X004362Y014048D02*
D03*
Y004748D02*
D03*
X009862Y014048D02*
D03*
Y004748D02*
D03*
X021665Y006188D02*
D03*
Y004988D02*
D03*
X020445Y006188D02*
D03*
Y004988D02*
D03*
X020245Y005588D02*
D03*
X021665Y004156D02*
D03*
Y002956D02*
D03*
X020445Y004156D02*
D03*
Y002956D02*
D03*
X020245Y003556D02*
D03*
X021665Y00822D02*
D03*
Y00702D02*
D03*
X020445Y00822D02*
D03*
Y00702D02*
D03*
X020245Y00762D02*
D03*
X021665Y010252D02*
D03*
Y009052D02*
D03*
X020445Y010252D02*
D03*
Y009052D02*
D03*
X020245Y009652D02*
D03*
D26*
X017145Y012773D02*
D03*
Y012573D02*
D03*
X018034Y013643D02*
D03*
Y013843D02*
D03*
X009906Y0040386D02*
D03*
Y0038386D02*
D03*
X021336Y011757D02*
D03*
Y011557D02*
D03*
D27*
X013716Y012854D02*
D03*
Y013054D02*
D03*
D28*
X008763Y003048D02*
D03*
Y003302D02*
D03*
Y003556D02*
D03*
D29*
X004362Y009108D02*
D03*
Y008854D02*
D03*
Y0086D02*
D03*
Y008346D02*
D03*
Y008092D02*
D03*
Y007838D02*
D03*
Y005298D02*
D03*
Y005552D02*
D03*
Y005806D02*
D03*
Y00606D02*
D03*
Y006314D02*
D03*
Y006568D02*
D03*
Y006822D02*
D03*
Y007076D02*
D03*
Y00733D02*
D03*
Y007584D02*
D03*
D30*
X0207518Y008636D02*
D03*
X021336D02*
D03*
Y006604D02*
D03*
X0207518D02*
D03*
X021336Y004572D02*
D03*
X0207518D02*
D03*
M02*
